<svg width="292" height="70" viewBox="0 0 292 70" fill="none" xmlns="http://www.w3.org/2000/svg">
<path d="M19 16.5C31.4 15.7 34.8333 5.83333 35 1H257.5C258.3 12.2 268.5 16 273.5 16.5V53.5C261.1 55.1 257.667 64.5 257.5 69H35C33.8 57.8 23.8333 54.3333 19 54V16.5Z" fill="#7C6D54" fill-opacity="0.1"/>
<path d="M274.069 53.9205C274.069 41.2811 274.069 28.6416 274.069 16.0409C274.069 15.6157 273.721 15.3065 273.334 15.3065C265.279 15.1905 258.579 8.85146 258.501 0.734401C258.501 0.309221 258.153 0 257.766 0C252.46 0 247.154 0 241.849 0C228.333 0 214.818 0 201.302 0C183.139 0 198.32 0 180.157 0C160.949 0 141.74 0 122.532 0C105.84 0 89.1491 0 72.4966 0C61.9241 0 51.3517 0 40.7406 0C38.8042 0 36.8679 0 34.9316 0C34.5443 0 34.157 0.347874 34.1958 0.734401C34.4281 9.19934 27.0313 15.8862 18.705 15.6157C18.2791 15.6157 17.9692 15.9636 17.9692 16.3501C17.9692 28.9895 17.9692 41.6289 17.9692 54.2684C17.9692 54.6549 18.3178 55.0414 18.705 55.0028C26.8764 54.7322 33.9247 61.0326 34.1958 69.2656C34.1958 69.6908 34.5443 70 34.9316 70C40.2371 70 45.5427 70 50.8483 70C64.3639 70 77.8796 70 91.3952 70C109.558 70 127.682 70 145.845 70C165.054 70 184.262 70 203.471 70C220.162 70 203.548 70 220.201 70C230.773 70 241.345 70 251.956 70C253.893 70 255.829 70 257.766 70C258.191 70 258.501 69.6521 258.501 69.2656C258.617 61.1485 265.279 54.7708 273.334 54.6935C274.302 54.6935 274.302 53.1861 273.334 53.1861C264.427 53.302 257.107 60.3368 256.991 69.2656C257.223 69.0337 257.494 68.7631 257.727 68.5312C252.421 68.5312 247.116 68.5312 241.81 68.5312C228.294 68.5312 214.779 68.5312 201.263 68.5312C183.1 68.5312 198.281 68.5312 180.118 68.5312C160.91 68.5312 141.701 68.5312 122.493 68.5312C105.802 68.5312 89.1104 68.5312 72.4578 68.5312C61.8854 68.5312 51.313 68.5312 40.7019 68.5312C38.7655 68.5312 36.8292 68.5312 34.8928 68.5312C35.1252 68.7631 35.3963 69.0337 35.6287 69.2656C35.3188 60.2595 27.6509 53.1861 18.6276 53.4953C18.86 53.7272 19.131 53.9978 19.3634 54.2297C19.3634 41.5903 19.3634 28.9509 19.3634 16.3114C19.131 16.5433 18.86 16.8139 18.6276 17.0458C27.8058 17.3937 35.8997 9.93374 35.6674 0.695748C35.435 0.927664 35.1639 1.19823 34.9316 1.43015C40.2371 1.43015 45.5427 1.43015 50.8483 1.43015C64.3639 1.43015 77.8796 1.43015 91.3952 1.43015C109.558 1.43015 127.682 1.43015 145.845 1.43015C165.054 1.43015 184.262 1.43015 203.471 1.43015C220.162 1.43015 203.548 1.43015 220.201 1.43015C230.773 1.43015 241.345 1.43015 251.956 1.43015C253.893 1.43015 255.829 1.43015 257.766 1.43015C257.533 1.19823 257.262 0.927664 257.03 0.695748C257.146 9.62452 264.504 16.6593 273.372 16.7753C273.14 16.5433 272.869 16.2728 272.637 16.0409C272.637 28.6803 272.637 41.3197 272.637 53.9205C272.559 54.8868 274.069 54.8868 274.069 53.9205Z" fill="url(#paint0_linear_14_3332)"/>
<path d="M269.964 51.4854C269.964 40.4693 269.964 29.4147 269.964 18.3987C269.964 18.2054 269.809 18.0121 269.616 18.0508C261.599 18.2054 254.784 11.7504 254.977 3.67201C254.977 3.47874 254.822 3.32413 254.629 3.32413C249.207 3.32413 243.824 3.32413 238.402 3.28548C224.693 3.24683 210.983 3.24683 197.235 3.20817C178.956 3.16952 193.944 3.16952 175.665 3.13087C156.534 3.09222 137.403 3.09222 118.272 3.05356C102.006 3.05356 85.7411 3.01491 69.5145 3.01491C59.9103 3.01491 50.306 2.97626 40.7018 2.97626C39.54 2.97626 38.3782 2.97626 37.2164 2.97626C37.0228 2.97626 36.8291 3.13087 36.8679 3.32413C37.4875 8.69685 34.1182 14.0309 29.5098 16.5433C27.1862 17.8189 24.1655 18.7079 21.4933 18.6692C21.2997 18.6692 21.1448 18.8239 21.1448 19.0171C21.1448 29.8785 21.1448 40.7786 21.1448 51.64C21.1448 51.8332 21.2997 52.0265 21.4933 51.9879C25.5596 51.9105 29.1225 52.7609 32.2594 55.5052C35.4737 58.3269 37.41 62.54 37.5649 66.7918C37.5649 66.9851 37.7198 67.1397 37.9135 67.1397C43.3352 67.1397 48.757 67.1011 54.1787 67.1011C67.9267 67.0624 81.6747 67.0624 95.4228 67.0238C113.741 66.9851 132.058 66.9464 150.376 66.9078C169.507 66.8691 188.599 66.8305 207.73 66.7918C223.918 66.7532 206.762 66.7145 222.95 66.6759C232.399 66.6759 241.849 66.6372 251.337 66.6372C252.421 66.6372 253.467 66.6372 254.551 66.6372C254.745 66.6372 254.9 66.4826 254.9 66.2893C255.016 58.4428 261.871 51.8719 269.693 51.7559C270.158 51.7559 270.158 51.0215 269.693 51.0215C261.483 51.1375 254.319 58.0177 254.203 66.2893C254.319 66.1734 254.435 66.0574 254.551 65.9415C249.129 65.9415 243.708 65.9801 238.286 65.9801C224.538 66.0188 210.79 66.0188 197.042 66.0574C178.724 66.0961 193.711 66.1347 175.394 66.1734C156.263 66.212 137.17 66.2507 118.039 66.2893C101.851 66.328 85.7023 66.3666 69.5145 66.3666C60.0652 66.3666 50.6159 66.4053 41.1278 66.4053C40.0434 66.4053 38.9978 66.4053 37.9135 66.4053C38.0297 66.5213 38.1458 66.6372 38.262 66.7532C38.1071 62.2308 36.0546 58.0177 32.7241 54.9255C29.5485 51.9879 25.6758 51.0988 21.4546 51.1761C21.5708 51.2921 21.687 51.4081 21.8031 51.524C21.8031 40.6626 21.8031 29.7626 21.8031 18.9012C21.687 19.0171 21.5708 19.1331 21.4546 19.249C24.4753 19.2877 27.6896 18.2441 30.2843 16.7753C34.8928 14.3401 38.1846 8.61955 37.5649 3.32413C37.4488 3.44009 37.3326 3.55605 37.2164 3.67201C42.6381 3.67201 48.0212 3.67201 53.4429 3.71066C67.1522 3.74931 80.8615 3.74931 94.6095 3.78796C112.889 3.82662 131.206 3.82662 149.485 3.86527C168.616 3.90392 187.747 3.90392 206.878 3.94257C223.105 3.98123 206.065 3.98123 222.292 4.01988C231.896 4.01988 241.5 4.05853 251.104 4.05853C252.266 4.05853 253.428 4.05853 254.59 4.05853C254.474 3.94257 254.358 3.82662 254.241 3.71066C254.048 12.1756 261.212 18.9785 269.616 18.8239C269.5 18.7079 269.383 18.5919 269.267 18.476C269.267 29.492 269.267 40.5467 269.267 51.5627C269.229 51.9879 269.964 51.9878 269.964 51.4854Z" fill="url(#paint1_linear_14_3332)"/>
<path d="M252.111 5.48871H211.061V6.26091H252.111V5.48871Z" fill="url(#paint2_linear_14_3332)"/>
<path d="M252.111 63.8542H211.061V64.6264H252.111V63.8542Z" fill="url(#paint3_linear_14_3332)"/>
<path d="M81.3263 5.48871H40.2759V6.26091H81.3263V5.48871Z" fill="url(#paint4_linear_14_3332)"/>
<path d="M81.3263 63.8542H40.2759V64.6264H81.3263V63.8542Z" fill="url(#paint5_linear_14_3332)"/>
<path d="M269.732 11.5958C269.848 11.2093 269.81 10.7068 269.616 10.2043C269.538 9.97239 269.384 9.70182 269.19 9.46991C268.996 9.23799 268.764 9.00608 268.532 8.85147C268.377 8.73551 268.183 8.6582 267.989 8.5809C270.042 7.03479 271.01 3.82662 271.126 3.44009C270.7 3.47874 267.215 3.90392 265.395 5.7979C265.356 5.48868 265.279 5.14081 265.162 4.87024C265.046 4.59967 264.891 4.3291 264.698 4.09719C264.504 3.86527 264.272 3.71066 264.078 3.55605C263.652 3.28548 263.149 3.16952 262.723 3.20818C262.335 3.24683 261.909 3.40144 261.638 3.67201L261.522 3.78797L261.483 3.82662L261.445 3.86527C261.406 3.94258 261.328 4.01988 261.29 4.09719C261.251 4.17449 261.212 4.2518 261.173 4.3291C261.173 4.36776 261.135 4.40641 261.135 4.44506L261.096 4.56102C260.98 4.90889 261.019 5.21811 261.096 5.52734C261.173 5.7979 261.328 6.02982 261.522 6.22308C261.638 6.30039 261.754 6.41635 261.909 6.455C261.948 6.455 261.987 6.49365 262.025 6.49365C262.064 6.49365 262.103 6.49365 262.142 6.49365C262.219 6.49365 262.335 6.455 262.413 6.41635C262.568 6.33904 262.645 6.22308 262.684 6.14578C262.723 6.06847 262.723 5.99117 262.761 5.91386C262.761 5.64329 262.684 5.52734 262.606 5.52734C262.529 5.48868 262.413 5.60464 262.297 5.7206C262.258 5.7206 262.258 5.75925 262.219 5.75925C262.219 5.75925 262.219 5.7206 262.258 5.7206C262.258 5.68195 262.258 5.68195 262.258 5.68195V5.64329C262.219 5.56599 262.219 5.45003 262.219 5.33407C262.219 5.21811 262.258 5.10216 262.297 4.9862C262.297 4.9862 262.297 4.94755 262.335 4.94755L262.374 4.90889C262.413 4.87024 262.413 4.83159 262.451 4.79294C262.49 4.75428 262.49 4.75428 262.529 4.71563V4.67698H262.568C262.568 4.67698 262.606 4.67698 262.606 4.63832C262.723 4.56102 262.8 4.52237 262.916 4.52237C263.032 4.52237 263.265 4.52237 263.536 4.67698C263.652 4.75428 263.807 4.83159 263.923 4.94755C264.039 5.0635 264.155 5.21811 264.272 5.37273C264.465 5.7206 264.581 6.14578 264.581 6.64826C264.581 7.1121 264.504 7.61458 264.31 8.07841C264.117 8.54224 263.846 8.92877 263.536 9.19934C263.381 9.35395 263.187 9.43126 263.032 9.50856C262.955 9.54721 262.839 9.58587 262.761 9.58587C262.684 9.58587 262.568 9.62452 262.49 9.62452C262.142 9.66317 261.871 9.58587 261.677 9.54721C261.483 9.50856 261.367 9.46991 261.367 9.46991C261.367 9.46991 261.445 9.58587 261.638 9.66317C261.832 9.77913 262.103 9.89509 262.529 9.93374C262.645 9.93374 262.723 9.93374 262.839 9.93374C262.955 9.93374 263.071 9.89509 263.187 9.89509C263.265 9.85643 263.381 9.85644 263.458 9.81778C263.42 9.89509 263.381 9.97239 263.342 10.0497C263.303 10.1657 263.265 10.2816 263.226 10.3589C263.187 10.4749 263.187 10.5522 263.187 10.6681C263.149 11.0547 263.226 11.3639 263.303 11.5958C263.381 11.7891 263.458 11.905 263.458 11.905C263.497 11.905 263.458 11.7891 263.458 11.5572C263.458 11.3639 263.458 11.0547 263.536 10.7454C263.575 10.6681 263.613 10.5908 263.613 10.5135C263.652 10.4362 263.691 10.3589 263.768 10.2816C263.884 10.127 264.001 9.97239 264.194 9.85644C264.388 9.70182 264.62 9.58587 264.891 9.46991C265.55 9.35395 266.169 9.27665 266.828 9.3153C266.866 9.3153 266.866 9.3153 266.905 9.27665C267.37 9.35395 267.796 9.54721 268.106 9.81778C268.26 9.93374 268.377 10.0884 268.454 10.2043C268.532 10.3589 268.609 10.5135 268.648 10.6295C268.725 10.9001 268.725 11.132 268.686 11.2479C268.648 11.3639 268.609 11.4798 268.493 11.5572L268.454 11.5958H268.415C268.377 11.5958 268.338 11.6345 268.338 11.6345C268.299 11.6345 268.26 11.6731 268.222 11.6731C268.222 11.6731 268.183 11.6731 268.183 11.7118H268.144C268.028 11.7504 267.912 11.7504 267.796 11.7118C267.68 11.6731 267.563 11.6345 267.486 11.5958C267.486 11.5958 267.447 11.5958 267.447 11.5572C267.447 11.5572 267.447 11.5572 267.408 11.5572C267.37 11.5572 267.37 11.5572 267.331 11.5572L267.37 11.5185C267.486 11.4025 267.641 11.3252 267.602 11.2479C267.602 11.1706 267.486 11.0547 267.254 11.016C267.176 11.016 267.099 11.016 267.021 11.0547C266.944 11.0933 266.789 11.132 266.711 11.2866C266.673 11.3639 266.634 11.4412 266.595 11.5185C266.595 11.5572 266.595 11.5958 266.595 11.6345C266.595 11.6731 266.595 11.7118 266.595 11.7504C266.634 11.905 266.673 12.0596 266.75 12.1756C266.905 12.4075 267.099 12.5621 267.37 12.7167C267.641 12.8327 267.951 12.91 268.299 12.8713L268.415 12.8327C268.454 12.8327 268.493 12.8327 268.532 12.794C268.609 12.7554 268.686 12.7554 268.764 12.7167C268.841 12.6781 268.919 12.6394 268.996 12.6008L269.074 12.5621L269.151 12.5235L269.267 12.4462C269.384 12.3302 269.655 11.9823 269.732 11.5958ZM266.324 7.34401C265.937 5.56599 268.919 5.14081 268.919 5.14081C267.834 7.88515 266.324 7.34401 266.324 7.34401Z" fill="url(#paint6_linear_14_3332)"/>
<path d="M262.684 67.8741C263.11 67.9127 263.613 67.7581 264.078 67.4876C264.31 67.3329 264.543 67.1397 264.736 66.9078C264.93 66.6758 265.124 66.4053 265.24 66.0961C265.317 65.9028 265.395 65.7095 265.433 65.4776C267.447 67.2556 270.894 67.5262 271.32 67.5649C271.204 67.1783 270.042 63.6996 267.718 62.2308C268.028 62.1148 268.338 61.9989 268.609 61.767C268.88 61.5737 269.112 61.3418 269.306 61.1099C269.5 60.8779 269.616 60.6074 269.732 60.3368C269.926 59.8343 269.926 59.2932 269.81 58.9067C269.693 58.5201 269.422 58.1336 269.112 57.9017L268.996 57.8244L268.919 57.7857L268.841 57.7471C268.764 57.7084 268.686 57.6698 268.57 57.6311C268.493 57.5925 268.415 57.5925 268.338 57.5538C268.299 57.5538 268.26 57.5152 268.222 57.5152H268.067C267.68 57.4765 267.37 57.5538 267.099 57.7084C266.828 57.863 266.595 58.0176 266.44 58.2882C266.363 58.4042 266.285 58.5588 266.285 58.7134C266.285 58.752 266.285 58.7907 266.285 58.8293C266.285 58.868 266.285 58.9067 266.285 58.984C266.285 59.0613 266.363 59.1772 266.402 59.2545C266.518 59.4091 266.634 59.4478 266.75 59.4864C266.866 59.5251 266.944 59.5251 266.983 59.4864C267.254 59.4478 267.37 59.3318 267.37 59.2545C267.37 59.1772 267.254 59.0613 267.099 58.984C267.06 58.984 267.06 58.9453 267.06 58.9067C267.06 58.9067 267.099 58.9067 267.137 58.9067C267.176 58.9067 267.176 58.9067 267.176 58.9067C267.176 58.9067 267.215 58.9067 267.215 58.868C267.292 58.8294 267.408 58.752 267.525 58.752C267.641 58.7134 267.796 58.7134 267.912 58.752H267.951C267.951 58.752 267.989 58.752 267.989 58.7907C268.028 58.7907 268.067 58.8293 268.106 58.8293C268.144 58.868 268.183 58.868 268.183 58.868H268.222L268.26 58.9067C268.338 58.984 268.415 59.0613 268.454 59.2159C268.493 59.3318 268.532 59.5638 268.415 59.873C268.377 60.0276 268.299 60.1822 268.222 60.3368C268.144 60.4914 268.028 60.646 267.873 60.762C267.563 61.0326 267.137 61.2258 266.634 61.3418C266.131 61.4577 265.627 61.4577 265.124 61.3804C264.62 61.3031 264.155 61.1099 263.807 60.8393C263.613 60.7233 263.497 60.5687 263.381 60.3755C263.303 60.2982 263.265 60.2208 263.226 60.1435C263.187 60.0662 263.149 59.9889 263.11 59.873C262.994 59.5251 262.994 59.2159 262.994 59.0226C262.994 58.8293 263.032 58.6747 262.994 58.6747C262.994 58.6747 262.916 58.7907 262.839 58.984C262.761 59.1772 262.684 59.5251 262.761 59.9503C262.761 60.0662 262.8 60.1435 262.839 60.2595C262.877 60.3755 262.916 60.4914 262.955 60.6074C262.994 60.6847 263.032 60.8006 263.11 60.8779C263.032 60.8393 262.955 60.8393 262.877 60.8006C262.761 60.762 262.645 60.762 262.529 60.762C262.413 60.762 262.297 60.762 262.219 60.762C261.793 60.8006 261.483 60.9552 261.29 61.0712C261.096 61.1872 261.019 61.2645 261.019 61.3031C261.019 61.3418 261.135 61.3031 261.367 61.2258C261.561 61.1872 261.871 61.1099 262.219 61.1485C262.297 61.1485 262.413 61.1872 262.49 61.1872C262.568 61.2258 262.684 61.2258 262.761 61.2645C262.955 61.3418 263.11 61.4577 263.303 61.5737C263.497 61.7283 263.691 61.9602 263.846 62.1921C264.117 62.8106 264.31 63.4677 264.388 64.1248C264.388 64.1634 264.427 64.1634 264.427 64.2021C264.427 64.7046 264.31 65.1684 264.117 65.5163C264.039 65.7095 263.923 65.8255 263.768 65.9801C263.652 66.0961 263.497 66.212 263.381 66.2893C263.11 66.4439 262.877 66.4826 262.761 66.4439C262.606 66.4439 262.529 66.4053 262.413 66.328L262.374 66.2893H262.335V66.2507C262.297 66.212 262.297 66.212 262.258 66.1734C262.219 66.1347 262.219 66.0961 262.18 66.0574L262.142 66.0187C262.142 66.0187 262.142 65.9801 262.103 65.9801C262.064 65.8641 262.025 65.7482 262.025 65.6322C262.025 65.5163 262.064 65.3617 262.064 65.2843C262.064 65.2457 262.064 65.2457 262.064 65.2457C262.064 65.2457 262.064 65.2457 262.064 65.207C262.064 65.1684 262.064 65.1684 262.025 65.1684C262.064 65.1684 262.064 65.207 262.103 65.207C262.219 65.323 262.335 65.439 262.451 65.4003C262.529 65.3617 262.606 65.2457 262.606 64.9751C262.606 64.8978 262.568 64.8205 262.529 64.7432C262.49 64.6659 262.413 64.5499 262.219 64.4726C262.142 64.434 262.025 64.3953 261.948 64.434C261.909 64.434 261.871 64.434 261.793 64.434C261.754 64.434 261.716 64.4726 261.677 64.4726C261.522 64.5499 261.406 64.6273 261.29 64.7432C261.096 64.9365 260.941 65.207 260.864 65.4776C260.786 65.7868 260.786 66.1347 260.902 66.4826L260.941 66.5985C260.941 66.6372 260.98 66.6758 260.98 66.7145C261.019 66.7918 261.057 66.8691 261.096 66.9464C261.135 67.0237 261.212 67.101 261.251 67.1783L261.29 67.217L261.328 67.2556L261.445 67.3716C261.832 67.6808 262.258 67.8741 262.684 67.8741ZM266.285 63.545C268.028 62.7719 269.074 65.7095 269.074 65.7095C266.053 65.1684 266.285 63.545 266.285 63.545Z" fill="url(#paint7_linear_14_3332)"/>
<path d="M23.6621 12.1369L23.7783 12.2142L23.8557 12.2529L23.9332 12.2915C24.0106 12.3302 24.0881 12.3688 24.1656 12.4075C24.243 12.4461 24.3205 12.4461 24.3979 12.4848C24.4366 12.4848 24.4754 12.5234 24.5141 12.5234L24.6303 12.5621C24.9788 12.6007 25.3274 12.5234 25.5597 12.4075C25.8308 12.2915 26.0244 12.0983 26.1793 11.8663C26.2568 11.7504 26.3343 11.6344 26.3343 11.4412C26.3343 11.4025 26.3343 11.3639 26.3343 11.3252C26.3343 11.2865 26.3343 11.2479 26.3343 11.2092C26.3343 11.1319 26.2955 11.016 26.2181 10.9773C26.1019 10.8227 25.9857 10.7841 25.9083 10.7454C25.8308 10.7068 25.7534 10.7068 25.6759 10.7068C25.4048 10.7454 25.3274 10.8227 25.3274 10.9387C25.3274 11.016 25.4435 11.0933 25.5597 11.2092C25.5984 11.2092 25.5984 11.2479 25.5984 11.2479C25.5984 11.2479 25.5597 11.2479 25.521 11.2479C25.4823 11.2479 25.4823 11.2479 25.4823 11.2479C25.4823 11.2479 25.4435 11.2479 25.4435 11.2865C25.3661 11.3252 25.2499 11.3639 25.1337 11.4025C25.0175 11.4412 24.9014 11.4025 24.7852 11.4025H24.7465C24.7465 11.4025 24.7077 11.4025 24.7077 11.3639C24.669 11.3639 24.6303 11.3252 24.5916 11.3252C24.5528 11.2865 24.5141 11.2865 24.5141 11.2865H24.4754L24.4366 11.2479C24.3592 11.1706 24.2817 11.0933 24.243 10.9387C24.2043 10.8227 24.2043 10.5908 24.2817 10.3202C24.3205 10.1656 24.3979 10.0497 24.4754 9.89505C24.5528 9.74044 24.669 9.62448 24.8239 9.50853C25.1337 9.23796 25.5597 9.08335 26.0244 8.96739C26.0632 8.96739 26.0632 8.96739 26.1019 9.00604C26.7603 8.92874 27.3799 9.00604 28.0382 9.16065C28.3093 9.27661 28.5417 9.39257 28.7353 9.54718C28.8902 9.66314 29.0451 9.81775 29.1613 9.97236C29.2388 10.0497 29.2388 10.127 29.3162 10.2043C29.3549 10.2816 29.3937 10.3589 29.3937 10.4362C29.4711 10.7454 29.4711 11.0546 29.4711 11.2479C29.4711 11.4412 29.4324 11.5571 29.4711 11.5958C29.4711 11.5958 29.5486 11.4798 29.626 11.2865C29.7035 11.0933 29.7809 10.7841 29.7422 10.3589C29.7422 10.2429 29.7035 10.1656 29.7035 10.0497C29.6648 9.93371 29.626 9.81775 29.5873 9.74044C29.5486 9.66314 29.5099 9.58583 29.4711 9.50853C29.5486 9.54718 29.6648 9.58583 29.7422 9.58583C29.8584 9.62448 29.9746 9.62448 30.0908 9.62448C30.2069 9.62448 30.3231 9.62448 30.4006 9.62448C30.7878 9.58583 31.0977 9.46987 31.2913 9.35392C31.4849 9.23796 31.5624 9.16065 31.5624 9.16065C31.5624 9.16065 31.4462 9.16065 31.2526 9.23796C31.0589 9.27661 30.7491 9.35392 30.4393 9.31526C30.3618 9.31526 30.2844 9.27661 30.1682 9.27661C30.0908 9.23796 29.9746 9.23796 29.8971 9.19931C29.7035 9.122 29.5486 9.00604 29.3937 8.89008C29.0839 8.61951 28.8128 8.19433 28.6191 7.76916C28.4255 7.30532 28.348 6.80284 28.348 6.33901C28.348 5.87517 28.4642 5.41134 28.6579 5.06347C28.7353 4.90886 28.8515 4.75425 29.0064 4.63829C29.1226 4.52233 29.2775 4.40637 29.3937 4.36772C29.6648 4.21311 29.8971 4.21311 30.0133 4.21311C30.1682 4.21311 30.2457 4.25176 30.3231 4.32907L30.3618 4.36772V4.40637C30.4006 4.44503 30.4006 4.44503 30.4393 4.48368C30.478 4.52233 30.478 4.56098 30.5168 4.59964L30.5555 4.63829C30.5555 4.63829 30.5555 4.67694 30.5942 4.67694C30.6329 4.7929 30.6717 4.90886 30.6717 5.02482C30.6717 5.14077 30.6329 5.25673 30.6329 5.33404C30.6329 5.37269 30.6329 5.37269 30.6329 5.37269C30.6329 5.37269 30.6329 5.37269 30.6329 5.41134C30.6329 5.45 30.6329 5.45 30.6717 5.45C30.6329 5.45 30.6329 5.41134 30.5942 5.41134C30.478 5.29538 30.3618 5.21808 30.2844 5.21808C30.2069 5.21808 30.1295 5.37269 30.1295 5.60461C30.1295 5.68191 30.1682 5.75922 30.2069 5.83652C30.2457 5.91383 30.3231 6.02979 30.478 6.10709C30.5555 6.14574 30.6329 6.1844 30.7491 6.1844C30.7878 6.1844 30.8266 6.1844 30.8653 6.1844C30.904 6.1844 30.9427 6.14574 30.9815 6.14574C31.1364 6.10709 31.2526 5.99113 31.3687 5.91383C31.5624 5.72056 31.7173 5.48865 31.7947 5.21808C31.8722 4.94751 31.8722 4.59964 31.7947 4.25176L31.756 4.1358C31.756 4.09715 31.7173 4.0585 31.7173 4.01985C31.6786 3.94254 31.6398 3.86524 31.6011 3.78793C31.4462 3.55601 31.3687 3.47871 31.33 3.4014L31.2913 3.36275L31.2526 3.3241L31.1364 3.20814C30.8653 2.93757 30.4393 2.78296 30.052 2.74431C29.6648 2.70566 29.1613 2.82161 28.6966 3.09218C28.4642 3.20814 28.2706 3.4014 28.077 3.63332C27.8833 3.86524 27.7284 4.09715 27.6122 4.40637C27.4961 4.71559 27.4186 5.02482 27.3799 5.33404C25.5597 3.44006 22.0356 3.01488 21.6483 2.97622C21.7645 3.36275 22.7327 6.57092 24.7852 8.11703C24.5916 8.19434 24.4366 8.27164 24.243 8.3876C23.9719 8.54221 23.7396 8.77413 23.5847 9.00604C23.391 9.23796 23.2748 9.46987 23.1587 9.74044C22.965 10.2429 22.9263 10.7454 23.0425 11.1319C23.0812 11.5185 23.3523 11.905 23.6621 12.1369ZM23.817 4.71559C23.817 4.71559 26.8377 5.10212 26.4117 6.9188C26.4117 6.88014 24.9014 7.45993 23.817 4.71559Z" fill="url(#paint8_linear_14_3332)"/>
<path d="M31.2138 66.9851L31.33 66.8691L31.3687 66.8304L31.4075 66.7918C31.4462 66.7145 31.5236 66.6372 31.5624 66.5599C31.6011 66.4826 31.6398 66.4053 31.6786 66.328C31.6786 66.2893 31.7173 66.2507 31.7173 66.212L31.756 66.096C31.8722 65.7482 31.8722 65.4003 31.7947 65.0911C31.7173 64.7819 31.5624 64.5499 31.3687 64.3567C31.2526 64.2407 31.1364 64.1634 30.9815 64.0861C30.9427 64.0861 30.904 64.0475 30.8653 64.0475C30.8266 64.0475 30.7878 64.0475 30.7104 64.0475C30.6329 64.0475 30.5168 64.0861 30.4393 64.0861C30.2844 64.1634 30.2069 64.2794 30.1295 64.3567C30.0908 64.434 30.052 64.5113 30.052 64.5886C30.0133 64.8592 30.1295 64.9751 30.2069 65.0138C30.2844 65.0524 30.4006 64.9365 30.5555 64.8205C30.5942 64.8205 30.5942 64.7819 30.6329 64.7819C30.6329 64.7819 30.6329 64.8205 30.5942 64.8205C30.5555 64.8592 30.5942 64.8592 30.5942 64.8592V64.8978C30.6329 64.9751 30.6329 65.0911 30.6329 65.2457C30.6329 65.3616 30.5942 65.5163 30.5555 65.5936C30.5555 65.5936 30.5555 65.6322 30.5168 65.6322L30.478 65.6709C30.4393 65.7095 30.4393 65.7482 30.4006 65.7868C30.3618 65.8255 30.3618 65.8255 30.3231 65.8641V65.9028H30.2844C30.2844 65.9028 30.2457 65.9028 30.2457 65.9414C30.1295 66.0187 30.052 66.0574 29.8971 66.0574C29.7422 66.0574 29.5099 66.0574 29.2775 65.9028C29.1613 65.8255 29.0064 65.7482 28.8902 65.5936C28.774 65.4776 28.6579 65.323 28.5417 65.1297C28.348 64.7819 28.2319 64.318 28.2319 63.8155C28.2319 63.7769 28.2706 63.7769 28.2706 63.7382C28.3481 63.0811 28.5417 62.424 28.8128 61.8056C28.9677 61.5737 29.1613 61.3418 29.3549 61.1872C29.5099 61.0325 29.7035 60.9166 29.8971 60.8779C29.9746 60.8393 30.0908 60.8006 30.1682 60.8006C30.2457 60.8006 30.3618 60.762 30.4393 60.762C30.7878 60.7233 31.0977 60.8006 31.2913 60.8393C31.4849 60.9166 31.6011 60.9552 31.6398 60.9166C31.6398 60.9166 31.5624 60.8006 31.3687 60.6847C31.1751 60.5687 30.8653 60.4141 30.4393 60.3754C30.3231 60.3754 30.2069 60.3754 30.1295 60.3754C30.0133 60.3754 29.8971 60.4141 29.7809 60.4141C29.7035 60.4141 29.626 60.4528 29.5486 60.4914C29.5873 60.4141 29.6648 60.2981 29.7035 60.2208C29.7809 60.1049 29.7809 59.9889 29.8197 59.873C29.8584 59.757 29.8584 59.641 29.8971 59.5637C29.9358 59.1386 29.8584 58.8293 29.8197 58.5974C29.7422 58.4042 29.6648 58.2882 29.6648 58.2882C29.626 58.2882 29.6648 58.4042 29.6648 58.6361C29.6648 58.8293 29.6648 59.1386 29.5486 59.4864C29.5099 59.5637 29.4711 59.641 29.4324 59.757C29.3937 59.8343 29.3549 59.9116 29.2775 59.9889C29.1613 60.1435 29.0064 60.2981 28.8515 60.4528C28.503 60.7233 28.0382 60.9166 27.5348 60.9939C27.0313 61.0712 26.5279 61.0712 26.0244 60.9552C25.5597 60.8393 25.095 60.646 24.7852 60.3754C24.6303 60.2595 24.5141 60.1049 24.4366 59.9503C24.3592 59.7957 24.2817 59.6411 24.243 59.4864C24.1656 59.1772 24.1656 58.9453 24.2043 58.8293C24.243 58.6747 24.3205 58.5974 24.3979 58.5201L24.4366 58.4815H24.4754C24.5141 58.4815 24.5528 58.4428 24.5528 58.4428C24.5916 58.4428 24.6303 58.4042 24.669 58.4042C24.669 58.4042 24.7077 58.4042 24.7077 58.3655H24.7465C24.8626 58.3269 24.9788 58.3269 25.1337 58.3655C25.2499 58.4042 25.3661 58.4428 25.4435 58.4815L25.4823 58.5201C25.4823 58.5201 25.4823 58.5201 25.521 58.5201C25.5597 58.5201 25.5597 58.5201 25.5984 58.5201C25.5984 58.5588 25.5597 58.5588 25.5597 58.5974C25.4048 58.7134 25.2886 58.7907 25.2886 58.868C25.2886 58.9453 25.4048 59.0613 25.6759 59.0999C25.7534 59.0999 25.8308 59.0999 25.9083 59.0999C26.0244 59.0613 26.1406 59.0226 26.2568 58.868C26.2955 58.7907 26.373 58.7134 26.373 58.5974C26.373 58.5588 26.373 58.5201 26.373 58.4428C26.373 58.4042 26.373 58.3655 26.373 58.3269C26.3343 58.1722 26.2955 58.0176 26.2181 57.9017C26.0632 57.6698 25.8308 57.4765 25.5597 57.3219C25.2886 57.1673 24.9401 57.09 24.5916 57.1286H24.4366C24.3979 57.1286 24.3592 57.1286 24.3205 57.1673C24.243 57.2059 24.1656 57.2059 24.0881 57.2446C24.0107 57.2832 23.9332 57.3219 23.817 57.3605L23.7396 57.3992L23.6621 57.4378L23.5459 57.5152C23.1974 57.7471 22.965 58.1336 22.8488 58.5201C22.7327 58.9066 22.7327 59.4478 22.9263 59.9503C23.0038 60.2208 23.1587 60.4528 23.3523 60.7233C23.5459 60.9552 23.7783 61.1872 24.0494 61.3804C24.3205 61.5737 24.6303 61.7283 24.9401 61.8442C22.6552 63.3131 21.4934 66.7531 21.3385 67.1783C21.7645 67.1397 25.2112 66.8304 27.225 65.0911C27.2637 65.2843 27.3412 65.5163 27.4186 65.7095C27.5348 66.0187 27.6897 66.2893 27.9221 66.5212C28.1157 66.7531 28.3481 66.9464 28.5804 67.101C29.0451 67.4102 29.5486 67.5262 29.9746 67.4875C30.478 67.4489 30.904 67.2556 31.2138 66.9851ZM23.7008 65.2843C23.7008 65.2843 24.7465 62.3081 26.4892 63.1198C26.4504 63.1198 26.7215 64.7046 23.7008 65.2843Z" fill="url(#paint9_linear_14_3332)"/>
<path d="M273.605 53.6113C273.489 53.6113 273.411 53.5727 273.334 53.4953C273.179 53.3407 273.179 53.1088 273.334 52.9542L291.071 35.2513L273.14 17.3551C272.985 17.2005 272.985 16.9686 273.14 16.814C273.295 16.6593 273.527 16.6593 273.682 16.814L291.884 34.9807C292.039 35.1353 292.039 35.3672 291.884 35.5218L273.876 53.4953C273.798 53.5727 273.721 53.6113 273.605 53.6113Z" fill="url(#paint10_linear_14_3332)"/>
<path d="M273.411 46.8471C273.295 46.8471 273.218 46.8084 273.14 46.7311C272.985 46.5765 272.985 46.3446 273.14 46.19L284.1 35.2513L273.14 24.3126C272.985 24.1579 272.985 23.926 273.14 23.7714C273.295 23.6168 273.527 23.6168 273.682 23.7714L284.913 34.9807C285.068 35.1353 285.068 35.3672 284.913 35.5218L273.682 46.7311C273.605 46.8084 273.527 46.8471 273.411 46.8471Z" fill="url(#paint11_linear_14_3332)"/>
<path d="M18.3952 53.6113C18.279 53.6113 18.2016 53.5727 18.1241 53.4953L0.11618 35.5218C-0.0387268 35.3672 -0.0387268 35.1353 0.11618 34.9807L18.3178 16.814C18.4727 16.6593 18.705 16.6593 18.8599 16.814C19.0149 16.9686 19.0149 17.2005 18.8599 17.3551L0.929443 35.2513L18.6663 52.9542C18.8212 53.1088 18.8212 53.3407 18.6663 53.4953C18.5889 53.5727 18.5114 53.6113 18.3952 53.6113Z" fill="url(#paint12_linear_14_3332)"/>
<path d="M18.5889 46.8471C18.4727 46.8471 18.3952 46.8084 18.3178 46.7311L7.08701 35.5218C6.9321 35.3672 6.9321 35.1353 7.08701 34.9807L18.3178 23.7714C18.4727 23.6168 18.705 23.6168 18.86 23.7714C19.0149 23.926 19.0149 24.1579 18.86 24.3126L7.90027 35.2513L18.86 46.19C19.0149 46.3446 19.0149 46.5765 18.86 46.7311C18.7825 46.8084 18.705 46.8471 18.5889 46.8471Z" fill="url(#paint13_linear_14_3332)"/>
<path d="M109.232 32.132L109.128 32.106C113.158 33.016 115.108 34.784 115.108 37.488C115.108 40.27 112.898 43.078 107.958 43.078C105.358 43.078 102.992 42.246 101.302 40.738L101.094 40.556L103.434 38.45L103.59 38.788C104.5 40.816 106.84 42.298 109.154 42.298C112.43 42.298 112.794 39.724 112.794 38.606C112.794 35.954 110.818 35.278 107.802 34.576C103.694 33.588 101.614 31.638 101.614 28.778C101.614 25.632 104.266 23.604 108.374 23.604C111 23.604 113.028 24.384 114.77 26.048L114.978 26.23L112.586 28.414L112.456 28.05C111.676 25.97 109.44 24.41 107.282 24.41C104.37 24.41 104.058 26.724 104.058 27.712C104.058 30.702 106.736 31.56 109.232 32.132ZM135.533 42.22V42.662H126.667L120.427 35.59L119.491 36.526V40.556C119.491 41.362 120.089 42.038 120.895 42.116L121.129 42.142V42.688H115.435V42.142L115.669 42.116C116.475 42.038 117.073 41.362 117.073 40.556V25.164C117.073 25.008 116.995 24.878 116.865 24.8C116.735 24.722 116.579 24.696 116.423 24.748L115.279 25.19V24.54L119.439 22.564V35.512L126.355 28.596C126.511 28.466 126.667 28.336 126.823 28.206C127.421 27.66 128.071 27.166 128.747 26.698L129.293 26.334C129.891 25.944 130.593 25.736 131.295 25.736C132.179 25.736 133.063 26.048 133.765 26.672L134.571 27.4L132.439 29.35L131.139 27.66C130.853 27.322 130.437 27.114 129.995 27.114C129.761 27.114 129.501 27.192 129.267 27.322L128.955 27.504C128.383 27.92 127.811 28.336 127.265 28.804L122.091 33.978L126.849 39.386C128.253 40.998 128.799 41.622 129.943 42.194H130.073C130.879 42.116 131.477 41.44 131.477 40.634V33.224C131.477 32.418 130.879 31.742 130.073 31.664L129.839 31.638V31.092H135.533V31.638L135.299 31.664C134.493 31.742 133.895 32.418 133.895 33.224V40.634C133.895 41.44 134.493 42.116 135.299 42.194L135.533 42.22ZM143.761 28.908V28.882C148.051 29.194 150.807 32.08 150.625 36.058C150.443 40.14 147.063 43.026 142.617 42.922C141.681 42.896 140.797 42.74 139.991 42.48V46.614C139.991 46.77 140.199 47.16 140.537 47.42L140.875 47.68L137.599 49.24V31.716L135.545 30.312L135.987 30.13C137.313 29.558 140.069 28.648 143.761 28.908ZM147.921 37.54L147.947 37.488C148.051 35.07 147.245 32.626 145.841 31.118C144.957 30.182 143.891 29.662 142.773 29.636C141.785 29.61 140.849 29.818 139.991 30.26V40.062C140.745 40.946 141.993 41.986 143.787 42.038C146.179 42.09 147.791 40.322 147.921 37.54Z" fill="#F2DA85"/>
<path d="M179.993 35L173 28.1L175.128 26L184.25 35L175.128 44L173 41.9L179.993 35Z" fill="#F2DA85"/>
<defs>
<linearGradient id="paint0_linear_14_3332" x1="146.019" y1="0" x2="146.019" y2="70" gradientUnits="userSpaceOnUse">
<stop stop-color="#F2DA85"/>
<stop offset="1" stop-color="#F2CD48"/>
</linearGradient>
<linearGradient id="paint1_linear_14_3332" x1="145.593" y1="2.97626" x2="145.593" y2="67.1397" gradientUnits="userSpaceOnUse">
<stop stop-color="#F2DA85"/>
<stop offset="1" stop-color="#F2CD48"/>
</linearGradient>
<linearGradient id="paint2_linear_14_3332" x1="231.586" y1="5.48871" x2="231.586" y2="6.26091" gradientUnits="userSpaceOnUse">
<stop stop-color="#F2DA85"/>
<stop offset="1" stop-color="#F2CD48"/>
</linearGradient>
<linearGradient id="paint3_linear_14_3332" x1="231.586" y1="63.8542" x2="231.586" y2="64.6264" gradientUnits="userSpaceOnUse">
<stop stop-color="#F2DA85"/>
<stop offset="1" stop-color="#F2CD48"/>
</linearGradient>
<linearGradient id="paint4_linear_14_3332" x1="60.8011" y1="5.48871" x2="60.8011" y2="6.26091" gradientUnits="userSpaceOnUse">
<stop stop-color="#F2DA85"/>
<stop offset="1" stop-color="#F2CD48"/>
</linearGradient>
<linearGradient id="paint5_linear_14_3332" x1="60.8011" y1="63.8542" x2="60.8011" y2="64.6264" gradientUnits="userSpaceOnUse">
<stop stop-color="#F2DA85"/>
<stop offset="1" stop-color="#F2CD48"/>
</linearGradient>
<linearGradient id="paint6_linear_14_3332" x1="266.074" y1="3.20093" x2="266.074" y2="12.8814" gradientUnits="userSpaceOnUse">
<stop stop-color="#F2DA85"/>
<stop offset="1" stop-color="#F2CD48"/>
</linearGradient>
<linearGradient id="paint7_linear_14_3332" x1="266.065" y1="57.5053" x2="266.065" y2="67.88" gradientUnits="userSpaceOnUse">
<stop stop-color="#F2DA85"/>
<stop offset="1" stop-color="#F2CD48"/>
</linearGradient>
<linearGradient id="paint8_linear_14_3332" x1="26.7506" y1="2.73706" x2="26.7506" y2="12.5721" gradientUnits="userSpaceOnUse">
<stop stop-color="#F2DA85"/>
<stop offset="1" stop-color="#F2CD48"/>
</linearGradient>
<linearGradient id="paint9_linear_14_3332" x1="26.5936" y1="57.1188" x2="26.5936" y2="67.4947" gradientUnits="userSpaceOnUse">
<stop stop-color="#F2DA85"/>
<stop offset="1" stop-color="#F2CD48"/>
</linearGradient>
<linearGradient id="paint10_linear_14_3332" x1="282.512" y1="16.698" x2="282.512" y2="53.6113" gradientUnits="userSpaceOnUse">
<stop stop-color="#F2DA85"/>
<stop offset="1" stop-color="#F2CD48"/>
</linearGradient>
<linearGradient id="paint11_linear_14_3332" x1="279.027" y1="23.6555" x2="279.027" y2="46.8471" gradientUnits="userSpaceOnUse">
<stop stop-color="#F2DA85"/>
<stop offset="1" stop-color="#F2CD48"/>
</linearGradient>
<linearGradient id="paint12_linear_14_3332" x1="9.48806" y1="16.698" x2="9.48806" y2="53.6113" gradientUnits="userSpaceOnUse">
<stop stop-color="#F2DA85"/>
<stop offset="1" stop-color="#F2CD48"/>
</linearGradient>
<linearGradient id="paint13_linear_14_3332" x1="12.9735" y1="23.6555" x2="12.9735" y2="46.8471" gradientUnits="userSpaceOnUse">
<stop stop-color="#F2DA85"/>
<stop offset="1" stop-color="#F2CD48"/>
</linearGradient>
</defs>
</svg>
