<svg width="92" height="41" viewBox="0 0 92 41" fill="none" xmlns="http://www.w3.org/2000/svg">
<rect x="0.5" y="1" width="91" height="39" rx="7.5" fill="#7C6D54" fill-opacity="0.1"/>
<rect x="0.5" y="1" width="91" height="39" rx="7.5" stroke="#F2DA85"/>
<path d="M20.6112 21.3266C22.7687 21.3266 24.9228 21.3266 27.0803 21.3266C27.232 21.3266 27.2185 21.3299 27.2185 21.1917C27.2185 20.7266 27.2185 20.2648 27.2185 19.7997C27.2185 19.7795 27.2185 19.7626 27.2185 19.7424C27.2152 19.6918 27.2084 19.6851 27.1545 19.6817C27.1241 19.6817 27.0938 19.6817 27.0668 19.6817C22.7654 19.6817 18.4639 19.6817 14.1624 19.6817C14.1287 19.6817 14.0916 19.6817 14.0579 19.6784C14.0073 19.675 13.9972 19.6581 14.0006 19.611C14.0343 19.2099 14.095 18.8155 14.1793 18.4212C14.3647 17.5414 14.6681 16.7022 15.0827 15.9034C15.4333 15.2326 15.8547 14.6057 16.3435 14.0293C17.0345 13.217 17.8335 12.5362 18.7403 11.9767C19.6775 11.4003 20.6854 10.9925 21.7574 10.7464C22.081 10.6723 22.4114 10.6116 22.7418 10.5779C22.9171 10.561 23.089 10.5408 23.2643 10.5307C23.5104 10.5172 23.7598 10.5037 24.0059 10.5004C24.3059 10.497 24.6093 10.5172 24.9094 10.5442C25.206 10.5711 25.5027 10.6082 25.7959 10.6622C26.5578 10.8037 27.2961 11.0262 28.0074 11.3396C28.7928 11.6834 29.5243 12.125 30.1986 12.6541C30.9604 13.2575 31.6212 13.9552 32.1807 14.7473C32.4808 15.1719 32.7437 15.6135 32.9729 16.0786C33.3606 16.864 33.6404 17.6897 33.8123 18.5492C33.873 18.8627 33.9168 19.1795 33.9506 19.4997C34.0045 19.9885 34.0079 20.4772 33.991 20.9693C33.9674 21.5928 33.8764 22.213 33.7314 22.8197C33.546 23.5949 33.273 24.3398 32.9055 25.051C32.5381 25.7622 32.0931 26.4228 31.5706 27.0295C30.8627 27.8519 30.0401 28.5362 29.1097 29.0923C28.1726 29.6518 27.168 30.0462 26.0993 30.2754C25.7521 30.3495 25.4015 30.4068 25.0476 30.4439C24.5487 30.4978 24.0464 30.5113 23.5474 30.4911C22.8564 30.4607 22.1754 30.363 21.5046 30.1911C20.9146 30.0394 20.3416 29.8372 19.7853 29.581C18.9426 29.1934 18.1706 28.6979 17.466 28.0946C16.6368 27.3834 15.939 26.561 15.376 25.624C15.0052 25.0038 14.7051 24.3533 14.4759 23.6691C14.3141 23.1871 14.186 22.695 14.1051 22.1894C14.0714 21.9737 14.041 21.758 14.0141 21.5423C14.0073 21.4883 14.004 21.4344 14.0006 21.3805C13.9972 21.3434 14.0141 21.3232 14.0512 21.3198C14.0849 21.3164 14.1219 21.3164 14.1557 21.3164C16.3064 21.3266 18.4605 21.3266 20.6112 21.3266Z" fill="#F2DA85"/>
<path d="M47.8286 19.606H47.8466C50.1326 19.786 51.4106 20.758 51.4646 22.36C51.5006 23.332 51.1946 24.16 50.5646 24.826C49.6106 25.816 47.9186 26.356 45.8126 26.356H40.3046V25.978L40.4666 25.96C41.0246 25.906 41.4386 25.438 41.4386 24.88V14.962C41.4386 14.404 41.0246 13.936 40.4666 13.882L40.3046 13.864V13.486H46.0286C48.0986 13.612 49.5386 14.944 49.5386 16.726C49.5386 18.076 48.9986 18.994 47.8286 19.606ZM46.0646 19.732V19.714C47.1266 19.228 47.6666 18.256 47.6666 16.816C47.6666 14.998 46.6766 14.044 44.7326 13.99H43.2746V21.028C43.7966 20.776 44.9846 20.218 46.0646 19.732ZM43.2746 21.586V25.366C44.3546 25.636 45.5606 25.726 46.3526 25.726C47.6846 25.726 48.4946 25.492 48.9806 24.97C49.4306 24.484 49.6106 23.71 49.5386 22.612C49.5026 22.18 49.2326 20.074 46.8926 20.074C46.8386 20.074 46.7846 20.074 46.7306 20.074C46.5326 20.092 46.3346 20.146 46.1366 20.236C45.5066 20.524 43.7246 21.37 43.2746 21.586ZM59.4373 23.458L59.4013 23.476V23.17L59.4193 22.576C58.0513 25.474 56.4673 26.536 55.3873 26.536C54.0553 26.536 52.9753 25.978 52.3993 25.006C51.9133 24.196 51.8773 23.206 52.3093 22.432C53.2993 20.632 55.0453 20.488 56.7193 20.344C57.6733 20.254 58.6453 20.164 59.4553 19.768C59.4193 18.418 58.9513 17.752 57.6193 17.752C56.1613 17.752 54.3433 18.562 53.5153 18.958L53.4073 19.012L51.8053 17.554L52.0933 17.446C53.2993 17.014 54.6313 16.762 55.9453 16.708C56.5753 16.69 57.2053 16.78 57.8353 16.978C59.5273 17.536 61.0753 18.544 61.0753 20.542V24.88C61.0753 24.988 61.1293 25.078 61.2193 25.132C61.3093 25.186 61.4173 25.204 61.5253 25.168L61.6693 25.492L59.4373 26.68V23.458ZM55.5673 25.078L55.5853 25.06C57.3673 25.24 58.4833 23.026 58.8973 22.198C58.9333 22.126 58.9693 22.054 58.9873 22C59.2753 21.46 59.4193 20.992 59.4373 20.542V20.416C58.5913 20.722 57.8353 20.758 57.1153 20.794C56.1433 20.848 55.2973 20.902 54.3793 21.55C53.7853 21.964 53.7493 22.774 53.9113 23.404C54.1093 24.178 54.7033 24.988 55.5673 25.078ZM66.1046 20.668L66.1226 20.65C68.3906 21.01 69.5066 21.928 69.5426 23.44C69.5066 25.258 67.9946 26.428 65.7086 26.428C63.8726 26.428 62.6666 25.708 62.1086 25.276L61.9466 25.15L63.4946 23.728L63.6026 23.908C64.3586 25.078 65.4746 25.87 66.3746 25.888C67.4546 25.888 67.9586 25.33 67.9586 24.268C67.9586 23.17 67.3646 22.648 65.8526 22.396C63.7646 22.018 62.5766 21.172 62.3246 19.876C62.2706 19.57 62.2706 19.246 62.3426 18.94C62.6306 17.572 64.0166 16.69 65.8526 16.69C67.1306 16.69 68.5346 17.122 69.3626 17.77L69.5246 17.896L68.0126 19.282L67.8866 19.12C67.1126 18.004 66.0146 17.266 65.1686 17.266C63.8546 17.266 63.7106 18.364 63.7106 18.832C63.7106 20.11 64.8626 20.47 66.1046 20.668ZM79.6462 19.57L79.4302 19.696L72.1942 23.134C72.8062 24.736 73.9402 25.78 75.2722 25.924C76.5142 26.068 77.4862 25.42 77.9362 24.142L77.9722 24.016H79.4122L79.2322 24.286C78.3502 25.69 76.8022 26.482 74.9842 26.482C72.9322 26.482 71.2402 25.456 70.4482 23.746C70.4302 23.692 70.4122 23.638 70.3942 23.584C70.1422 22.972 70.0162 22.306 70.0162 21.586C70.0162 18.76 72.1222 16.708 75.0202 16.708C77.0002 16.708 78.6742 17.662 79.4842 19.282L79.5022 19.318C79.5202 19.336 79.5382 19.354 79.5562 19.372L79.6462 19.57ZM71.7982 20.11C71.7082 20.938 71.7802 21.802 72.0142 22.63L77.7022 19.93C77.0722 18.418 75.9562 17.428 74.6782 17.284C74.5702 17.266 74.4622 17.266 74.3542 17.266C72.9682 17.266 71.9962 18.328 71.7982 20.11Z" fill="#F2DA85"/>
</svg>
