<svg width="292" height="71" viewBox="0 0 292 71" fill="none" xmlns="http://www.w3.org/2000/svg">
<path d="M19 17C31.4 16.2 34.8333 6.33333 35 1.5H257.5C258.3 12.7 268.5 16.5 273.5 17V54C261.1 55.6 257.667 65 257.5 69.5H35C33.8 58.3 23.8333 54.8333 19 54.5V17Z" fill="#7C6D54" fill-opacity="0.1"/>
<path d="M274.069 54.4205C274.069 41.7811 274.069 29.1416 274.069 16.5409C274.069 16.1157 273.721 15.8065 273.334 15.8065C265.279 15.6905 258.579 9.35146 258.501 1.2344C258.501 0.809221 258.153 0.5 257.766 0.5C252.46 0.5 247.154 0.5 241.849 0.5C228.333 0.5 214.818 0.5 201.302 0.5C183.139 0.5 198.32 0.5 180.157 0.5C160.949 0.5 141.74 0.5 122.532 0.5C105.84 0.5 89.1491 0.5 72.4966 0.5C61.9241 0.5 51.3517 0.5 40.7406 0.5C38.8042 0.5 36.8679 0.5 34.9316 0.5C34.5443 0.5 34.157 0.847874 34.1958 1.2344C34.4281 9.69934 27.0313 16.3862 18.705 16.1157C18.2791 16.1157 17.9692 16.4636 17.9692 16.8501C17.9692 29.4895 17.9692 42.1289 17.9692 54.7684C17.9692 55.1549 18.3178 55.5414 18.705 55.5028C26.8764 55.2322 33.9247 61.5326 34.1958 69.7656C34.1958 70.1908 34.5443 70.5 34.9316 70.5C40.2371 70.5 45.5427 70.5 50.8483 70.5C64.3639 70.5 77.8796 70.5 91.3952 70.5C109.558 70.5 127.682 70.5 145.845 70.5C165.054 70.5 184.262 70.5 203.471 70.5C220.162 70.5 203.548 70.5 220.201 70.5C230.773 70.5 241.345 70.5 251.956 70.5C253.893 70.5 255.829 70.5 257.766 70.5C258.191 70.5 258.501 70.1521 258.501 69.7656C258.617 61.6485 265.279 55.2708 273.334 55.1935C274.302 55.1935 274.302 53.6861 273.334 53.6861C264.427 53.802 257.107 60.8368 256.991 69.7656C257.223 69.5337 257.494 69.2631 257.727 69.0312C252.421 69.0312 247.116 69.0312 241.81 69.0312C228.294 69.0312 214.779 69.0312 201.263 69.0312C183.1 69.0312 198.281 69.0312 180.118 69.0312C160.91 69.0312 141.701 69.0312 122.493 69.0312C105.802 69.0312 89.1104 69.0312 72.4578 69.0312C61.8854 69.0312 51.313 69.0312 40.7019 69.0312C38.7655 69.0312 36.8292 69.0312 34.8928 69.0312C35.1252 69.2631 35.3963 69.5337 35.6287 69.7656C35.3188 60.7595 27.6509 53.6861 18.6276 53.9953C18.86 54.2272 19.131 54.4978 19.3634 54.7297C19.3634 42.0903 19.3634 29.4509 19.3634 16.8114C19.131 17.0433 18.86 17.3139 18.6276 17.5458C27.8058 17.8937 35.8997 10.4337 35.6674 1.19575C35.435 1.42766 35.1639 1.69823 34.9316 1.93015C40.2371 1.93015 45.5427 1.93015 50.8483 1.93015C64.3639 1.93015 77.8796 1.93015 91.3952 1.93015C109.558 1.93015 127.682 1.93015 145.845 1.93015C165.054 1.93015 184.262 1.93015 203.471 1.93015C220.162 1.93015 203.548 1.93015 220.201 1.93015C230.773 1.93015 241.345 1.93015 251.956 1.93015C253.893 1.93015 255.829 1.93015 257.766 1.93015C257.533 1.69823 257.262 1.42766 257.03 1.19575C257.146 10.1245 264.504 17.1593 273.372 17.2753C273.14 17.0433 272.869 16.7728 272.637 16.5409C272.637 29.1803 272.637 41.8197 272.637 54.4205C272.559 55.3868 274.069 55.3868 274.069 54.4205Z" fill="url(#paint0_linear_98_552)"/>
<path d="M269.964 51.9853C269.964 40.9693 269.964 29.9146 269.964 18.8986C269.964 18.7053 269.809 18.5121 269.616 18.5507C261.599 18.7054 254.784 12.2504 254.977 4.17194C254.977 3.97868 254.822 3.82407 254.629 3.82407C249.207 3.82407 243.824 3.82407 238.402 3.78542C224.693 3.74676 210.983 3.74676 197.235 3.70811C178.956 3.66946 193.944 3.66946 175.665 3.63081C156.534 3.59215 137.403 3.59215 118.272 3.5535C102.006 3.5535 85.7411 3.51485 69.5145 3.51485C59.9103 3.51485 50.306 3.4762 40.7018 3.4762C39.54 3.4762 38.3782 3.4762 37.2164 3.4762C37.0228 3.4762 36.8291 3.63081 36.8679 3.82407C37.4875 9.19679 34.1182 14.5309 29.5098 17.0433C27.1862 18.3188 24.1655 19.2078 21.4933 19.1692C21.2997 19.1692 21.1448 19.3238 21.1448 19.5171C21.1448 30.3785 21.1448 41.2785 21.1448 52.1399C21.1448 52.3332 21.2997 52.5264 21.4933 52.4878C25.5596 52.4105 29.1225 53.2608 32.2594 56.0052C35.4737 58.8268 37.41 63.04 37.5649 67.2918C37.5649 67.485 37.7198 67.6396 37.9135 67.6396C43.3352 67.6396 48.757 67.601 54.1787 67.601C67.9267 67.5623 81.6747 67.5623 95.4228 67.5237C113.741 67.485 132.058 67.4464 150.376 67.4077C169.507 67.3691 188.599 67.3304 207.73 67.2918C223.918 67.2531 206.762 67.2145 222.95 67.1758C232.399 67.1758 241.849 67.1372 251.337 67.1372C252.421 67.1372 253.467 67.1372 254.551 67.1372C254.745 67.1372 254.9 66.9825 254.9 66.7893C255.016 58.9428 261.871 52.3718 269.693 52.2559C270.158 52.2559 270.158 51.5215 269.693 51.5215C261.483 51.6374 254.319 58.5176 254.203 66.7893C254.319 66.6733 254.435 66.5574 254.551 66.4414C249.129 66.4414 243.708 66.4801 238.286 66.4801C224.538 66.5187 210.79 66.5187 197.042 66.5574C178.724 66.596 193.711 66.6347 175.394 66.6733C156.263 66.712 137.17 66.7506 118.039 66.7893C101.851 66.8279 85.7023 66.8666 69.5145 66.8666C60.0652 66.8666 50.6159 66.9052 41.1278 66.9052C40.0434 66.9052 38.9978 66.9052 37.9135 66.9052C38.0297 67.0212 38.1458 67.1372 38.262 67.2531C38.1071 62.7308 36.0546 58.5176 32.7241 55.4254C29.5485 52.4878 25.6758 51.5988 21.4546 51.6761C21.5708 51.792 21.687 51.908 21.8031 52.024C21.8031 41.1626 21.8031 30.2625 21.8031 19.4011C21.687 19.5171 21.5708 19.633 21.4546 19.749C24.4753 19.7876 27.6896 18.744 30.2843 17.2752C34.8928 14.8401 38.1846 9.11949 37.5649 3.82407C37.4488 3.94003 37.3326 4.05599 37.2164 4.17194C42.6381 4.17194 48.0212 4.17194 53.4429 4.2106C67.1522 4.24925 80.8615 4.24925 94.6095 4.2879C112.889 4.32656 131.206 4.32656 149.485 4.36521C168.616 4.40386 187.747 4.40386 206.878 4.44251C223.105 4.48117 206.065 4.48117 222.292 4.51982C231.896 4.51982 241.5 4.55847 251.104 4.55847C252.266 4.55847 253.428 4.55847 254.59 4.55847C254.474 4.44251 254.358 4.32656 254.241 4.2106C254.048 12.6755 261.212 19.4784 269.616 19.3238C269.5 19.2078 269.383 19.0919 269.267 18.9759C269.267 29.9919 269.267 41.0466 269.267 52.0626C269.229 52.4878 269.964 52.4878 269.964 51.9853Z" fill="url(#paint1_linear_98_552)"/>
<path d="M252.111 5.98877H211.061V6.76097H252.111V5.98877Z" fill="url(#paint2_linear_98_552)"/>
<path d="M252.111 64.3544H211.061V65.1266H252.111V64.3544Z" fill="url(#paint3_linear_98_552)"/>
<path d="M81.3263 5.98877H40.2759V6.76097H81.3263V5.98877Z" fill="url(#paint4_linear_98_552)"/>
<path d="M81.3263 64.3544H40.2759V65.1266H81.3263V64.3544Z" fill="url(#paint5_linear_98_552)"/>
<path d="M269.732 12.0958C269.848 11.7093 269.81 11.2068 269.616 10.7043C269.538 10.4724 269.384 10.2018 269.19 9.96991C268.996 9.73799 268.764 9.50608 268.532 9.35147C268.377 9.23551 268.183 9.1582 267.989 9.0809C270.042 7.53479 271.01 4.32662 271.126 3.94009C270.7 3.97874 267.215 4.40392 265.395 6.2979C265.356 5.98868 265.279 5.64081 265.162 5.37024C265.046 5.09967 264.891 4.8291 264.698 4.59719C264.504 4.36527 264.272 4.21066 264.078 4.05605C263.652 3.78548 263.149 3.66952 262.723 3.70818C262.335 3.74683 261.909 3.90144 261.638 4.17201L261.522 4.28797L261.483 4.32662L261.445 4.36527C261.406 4.44258 261.328 4.51988 261.29 4.59719C261.251 4.67449 261.212 4.7518 261.173 4.8291C261.173 4.86776 261.135 4.90641 261.135 4.94506L261.096 5.06102C260.98 5.40889 261.019 5.71811 261.096 6.02734C261.173 6.2979 261.328 6.52982 261.522 6.72308C261.638 6.80039 261.754 6.91635 261.909 6.955C261.948 6.955 261.987 6.99365 262.025 6.99365C262.064 6.99365 262.103 6.99365 262.142 6.99365C262.219 6.99365 262.335 6.955 262.413 6.91635C262.568 6.83904 262.645 6.72308 262.684 6.64578C262.723 6.56847 262.723 6.49117 262.761 6.41386C262.761 6.14329 262.684 6.02734 262.606 6.02734C262.529 5.98868 262.413 6.10464 262.297 6.2206C262.258 6.2206 262.258 6.25925 262.219 6.25925C262.219 6.25925 262.219 6.2206 262.258 6.2206C262.258 6.18195 262.258 6.18195 262.258 6.18195V6.14329C262.219 6.06599 262.219 5.95003 262.219 5.83407C262.219 5.71811 262.258 5.60216 262.297 5.4862C262.297 5.4862 262.297 5.44755 262.335 5.44755L262.374 5.40889C262.413 5.37024 262.413 5.33159 262.451 5.29294C262.49 5.25428 262.49 5.25428 262.529 5.21563V5.17698H262.568C262.568 5.17698 262.606 5.17698 262.606 5.13832C262.723 5.06102 262.8 5.02237 262.916 5.02237C263.032 5.02237 263.265 5.02237 263.536 5.17698C263.652 5.25428 263.807 5.33159 263.923 5.44755C264.039 5.5635 264.155 5.71811 264.272 5.87273C264.465 6.2206 264.581 6.64578 264.581 7.14826C264.581 7.6121 264.504 8.11458 264.31 8.57841C264.117 9.04224 263.846 9.42877 263.536 9.69934C263.381 9.85395 263.187 9.93126 263.032 10.0086C262.955 10.0472 262.839 10.0859 262.761 10.0859C262.684 10.0859 262.568 10.1245 262.49 10.1245C262.142 10.1632 261.871 10.0859 261.677 10.0472C261.483 10.0086 261.367 9.96991 261.367 9.96991C261.367 9.96991 261.445 10.0859 261.638 10.1632C261.832 10.2791 262.103 10.3951 262.529 10.4337C262.645 10.4337 262.723 10.4337 262.839 10.4337C262.955 10.4337 263.071 10.3951 263.187 10.3951C263.265 10.3564 263.381 10.3564 263.458 10.3178C263.42 10.3951 263.381 10.4724 263.342 10.5497C263.303 10.6657 263.265 10.7816 263.226 10.8589C263.187 10.9749 263.187 11.0522 263.187 11.1681C263.149 11.5547 263.226 11.8639 263.303 12.0958C263.381 12.2891 263.458 12.405 263.458 12.405C263.497 12.405 263.458 12.2891 263.458 12.0572C263.458 11.8639 263.458 11.5547 263.536 11.2454C263.575 11.1681 263.613 11.0908 263.613 11.0135C263.652 10.9362 263.691 10.8589 263.768 10.7816C263.884 10.627 264.001 10.4724 264.194 10.3564C264.388 10.2018 264.62 10.0859 264.891 9.96991C265.55 9.85395 266.169 9.77665 266.828 9.8153C266.866 9.8153 266.866 9.8153 266.905 9.77665C267.37 9.85395 267.796 10.0472 268.106 10.3178C268.26 10.4337 268.377 10.5884 268.454 10.7043C268.532 10.8589 268.609 11.0135 268.648 11.1295C268.725 11.4001 268.725 11.632 268.686 11.7479C268.648 11.8639 268.609 11.9798 268.493 12.0572L268.454 12.0958H268.415C268.377 12.0958 268.338 12.1345 268.338 12.1345C268.299 12.1345 268.26 12.1731 268.222 12.1731C268.222 12.1731 268.183 12.1731 268.183 12.2118H268.144C268.028 12.2504 267.912 12.2504 267.796 12.2118C267.68 12.1731 267.563 12.1345 267.486 12.0958C267.486 12.0958 267.447 12.0958 267.447 12.0572C267.447 12.0572 267.447 12.0572 267.408 12.0572C267.37 12.0572 267.37 12.0572 267.331 12.0572L267.37 12.0185C267.486 11.9025 267.641 11.8252 267.602 11.7479C267.602 11.6706 267.486 11.5547 267.254 11.516C267.176 11.516 267.099 11.516 267.021 11.5547C266.944 11.5933 266.789 11.632 266.711 11.7866C266.673 11.8639 266.634 11.9412 266.595 12.0185C266.595 12.0572 266.595 12.0958 266.595 12.1345C266.595 12.1731 266.595 12.2118 266.595 12.2504C266.634 12.405 266.673 12.5596 266.75 12.6756C266.905 12.9075 267.099 13.0621 267.37 13.2167C267.641 13.3327 267.951 13.41 268.299 13.3713L268.415 13.3327C268.454 13.3327 268.493 13.3327 268.532 13.294C268.609 13.2554 268.686 13.2554 268.764 13.2167C268.841 13.1781 268.919 13.1394 268.996 13.1008L269.074 13.0621L269.151 13.0235L269.267 12.9462C269.384 12.8302 269.655 12.4823 269.732 12.0958ZM266.324 7.84401C265.937 6.06599 268.919 5.64081 268.919 5.64081C267.834 8.38515 266.324 7.84401 266.324 7.84401Z" fill="url(#paint6_linear_98_552)"/>
<path d="M262.684 68.3741C263.11 68.4128 263.613 68.2582 264.078 67.9876C264.31 67.833 264.543 67.6397 264.736 67.4078C264.93 67.1759 265.124 66.9053 265.24 66.5961C265.317 66.4029 265.395 66.2096 265.433 65.9777C267.447 67.7557 270.894 68.0263 271.32 68.0649C271.204 67.6784 270.042 64.1996 267.718 62.7308C268.028 62.6149 268.338 62.4989 268.609 62.267C268.88 62.0738 269.112 61.8418 269.306 61.6099C269.5 61.378 269.616 61.1074 269.732 60.8369C269.926 60.3344 269.926 59.7932 269.809 59.4067C269.693 59.0202 269.422 58.6337 269.112 58.4017L268.996 58.3244L268.919 58.2858L268.841 58.2471C268.764 58.2085 268.686 58.1698 268.57 58.1312C268.493 58.0925 268.415 58.0925 268.338 58.0539C268.299 58.0539 268.26 58.0152 268.222 58.0152H268.067C267.679 57.9766 267.37 58.0539 267.099 58.2085C266.827 58.3631 266.595 58.5177 266.44 58.7883C266.363 58.9042 266.285 59.0588 266.285 59.2135C266.285 59.2521 266.285 59.2908 266.285 59.3294C266.285 59.3681 266.285 59.4067 266.285 59.484C266.285 59.5613 266.363 59.6773 266.401 59.7546C266.518 59.9092 266.634 59.9479 266.75 59.9865C266.866 60.0252 266.944 60.0252 266.982 59.9865C267.253 59.9479 267.37 59.8319 267.37 59.7546C267.37 59.6773 267.253 59.5613 267.099 59.484C267.06 59.484 267.06 59.4454 267.06 59.4067C267.06 59.4067 267.099 59.4067 267.137 59.4067C267.176 59.4067 267.176 59.4067 267.176 59.4067C267.176 59.4067 267.215 59.4067 267.215 59.3681C267.292 59.3294 267.408 59.2521 267.525 59.2521C267.641 59.2135 267.796 59.2135 267.912 59.2521H267.951C267.951 59.2521 267.989 59.2521 267.989 59.2908C268.028 59.2908 268.067 59.3294 268.105 59.3294C268.144 59.3681 268.183 59.3681 268.183 59.3681H268.222L268.26 59.4067C268.338 59.484 268.415 59.5613 268.454 59.7159C268.493 59.8319 268.531 60.0638 268.415 60.373C268.377 60.5276 268.299 60.6823 268.222 60.8369C268.144 60.9915 268.028 61.1461 267.873 61.262C267.563 61.5326 267.137 61.7259 266.634 61.8418C266.13 61.9578 265.627 61.9578 265.123 61.8805C264.62 61.8032 264.155 61.6099 263.807 61.3394C263.613 61.2234 263.497 61.0688 263.381 60.8755C263.303 60.7982 263.265 60.7209 263.226 60.6436C263.187 60.5663 263.148 60.489 263.11 60.373C262.994 60.0252 262.994 59.7159 262.994 59.5227C262.994 59.3294 263.032 59.1748 262.994 59.1748C262.994 59.1748 262.916 59.2908 262.839 59.484C262.761 59.6773 262.684 60.0252 262.761 60.4503C262.761 60.5663 262.8 60.6436 262.839 60.7596C262.877 60.8755 262.916 60.9915 262.955 61.1074C262.994 61.1847 263.032 61.3007 263.11 61.378C263.032 61.3393 262.955 61.3394 262.877 61.3007C262.761 61.262 262.645 61.262 262.529 61.262C262.413 61.262 262.296 61.262 262.219 61.262C261.793 61.3007 261.483 61.4553 261.29 61.5713C261.096 61.6872 261.018 61.7645 261.018 61.8032C261.018 61.8418 261.135 61.8032 261.367 61.7259C261.561 61.6872 261.87 61.6099 262.219 61.6486C262.296 61.6486 262.413 61.6872 262.49 61.6872C262.568 61.7259 262.684 61.7259 262.761 61.7645C262.955 61.8418 263.11 61.9578 263.303 62.0738C263.497 62.2284 263.691 62.4603 263.846 62.6922C264.117 63.3106 264.31 63.9677 264.388 64.6248C264.388 64.6635 264.426 64.6635 264.426 64.7021C264.426 65.2046 264.31 65.6684 264.117 66.0163C264.039 66.2096 263.923 66.3255 263.768 66.4802C263.652 66.5961 263.497 66.7121 263.381 66.7894C263.11 66.944 262.877 66.9826 262.761 66.944C262.606 66.944 262.529 66.9053 262.413 66.828L262.374 66.7894H262.335V66.7507C262.296 66.7121 262.296 66.7121 262.258 66.6734C262.219 66.6348 262.219 66.5961 262.18 66.5575L262.142 66.5188C262.142 66.5188 262.142 66.4802 262.103 66.4802C262.064 66.3642 262.025 66.2482 262.025 66.1323C262.025 66.0163 262.064 65.8617 262.064 65.7844C262.064 65.7458 262.064 65.7458 262.064 65.7458C262.064 65.7458 262.064 65.7458 262.064 65.7071C262.064 65.6684 262.064 65.6685 262.025 65.6685C262.064 65.6685 262.064 65.7071 262.103 65.7071C262.219 65.8231 262.335 65.939 262.451 65.9004C262.529 65.8617 262.606 65.7458 262.606 65.4752C262.606 65.3979 262.568 65.3206 262.529 65.2433C262.49 65.166 262.413 65.05 262.219 64.9727C262.142 64.9341 262.025 64.8954 261.948 64.934C261.909 64.934 261.87 64.934 261.793 64.934C261.754 64.934 261.716 64.9727 261.677 64.9727C261.522 65.05 261.406 65.1273 261.29 65.2433C261.096 65.4365 260.941 65.7071 260.864 65.9777C260.786 66.2869 260.786 66.6348 260.902 66.9826L260.941 67.0986C260.941 67.1373 260.98 67.1759 260.98 67.2146C261.018 67.2919 261.057 67.3692 261.096 67.4465C261.135 67.5238 261.212 67.6011 261.251 67.6784L261.29 67.717L261.328 67.7557L261.444 67.8717C261.832 68.1809 262.258 68.3741 262.684 68.3741ZM266.285 64.045C268.028 63.272 269.074 66.2096 269.074 66.2096C266.053 65.6684 266.285 64.045 266.285 64.045Z" fill="url(#paint7_linear_98_552)"/>
<path d="M23.6622 12.6369L23.7784 12.7142L23.8559 12.7529L23.9333 12.7915C24.0108 12.8302 24.0882 12.8688 24.1657 12.9075C24.2431 12.9461 24.3206 12.9461 24.398 12.9848C24.4368 12.9848 24.4755 13.0234 24.5142 13.0234L24.6304 13.0621C24.9789 13.1007 25.3275 13.0234 25.5598 12.9075C25.8309 12.7915 26.0246 12.5983 26.1795 12.3663C26.2569 12.2504 26.3344 12.1344 26.3344 11.9412C26.3344 11.9025 26.3344 11.8639 26.3344 11.8252C26.3344 11.7865 26.3344 11.7479 26.3344 11.7092C26.3344 11.6319 26.2957 11.516 26.2182 11.4773C26.102 11.3227 25.9858 11.2841 25.9084 11.2454C25.8309 11.2068 25.7535 11.2068 25.676 11.2068C25.4049 11.2454 25.3275 11.3227 25.3275 11.4387C25.3275 11.516 25.4437 11.5933 25.5598 11.7092C25.5986 11.7092 25.5986 11.7479 25.5986 11.7479C25.5986 11.7479 25.5598 11.7479 25.5211 11.7479C25.4824 11.7479 25.4824 11.7479 25.4824 11.7479C25.4824 11.7479 25.4437 11.7479 25.4437 11.7865C25.3662 11.8252 25.25 11.8639 25.1338 11.9025C25.0177 11.9412 24.9015 11.9025 24.7853 11.9025H24.7466C24.7466 11.9025 24.7079 11.9025 24.7079 11.8639C24.6691 11.8639 24.6304 11.8252 24.5917 11.8252C24.5529 11.7865 24.5142 11.7865 24.5142 11.7865H24.4755L24.4368 11.7479C24.3593 11.6706 24.2819 11.5933 24.2431 11.4387C24.2044 11.3227 24.2044 11.0908 24.2819 10.8202C24.3206 10.6656 24.398 10.5497 24.4755 10.3951C24.5529 10.2404 24.6691 10.1245 24.824 10.0085C25.1338 9.73796 25.5598 9.58335 26.0246 9.46739C26.0633 9.46739 26.0633 9.46739 26.102 9.50604C26.7604 9.42874 27.38 9.50604 28.0384 9.66065C28.3094 9.77661 28.5418 9.89257 28.7354 10.0472C28.8903 10.1631 29.0453 10.3177 29.1614 10.4724C29.2389 10.5497 29.2389 10.627 29.3163 10.7043C29.3551 10.7816 29.3938 10.8589 29.3938 10.9362C29.4712 11.2454 29.4712 11.5546 29.4712 11.7479C29.4712 11.9412 29.4325 12.0571 29.4712 12.0958C29.4712 12.0958 29.5487 11.9798 29.6262 11.7865C29.7036 11.5933 29.7811 11.2841 29.7423 10.8589C29.7423 10.7429 29.7036 10.6656 29.7036 10.5497C29.6649 10.4337 29.6262 10.3177 29.5874 10.2404C29.5487 10.1631 29.51 10.0858 29.4712 10.0085C29.5487 10.0472 29.6649 10.0858 29.7423 10.0858C29.8585 10.1245 29.9747 10.1245 30.0909 10.1245C30.2071 10.1245 30.3232 10.1245 30.4007 10.1245C30.788 10.0858 31.0978 9.96987 31.2914 9.85392C31.485 9.73796 31.5625 9.66065 31.5625 9.66065C31.5625 9.66065 31.4463 9.66065 31.2527 9.73796C31.059 9.77661 30.7492 9.85392 30.4394 9.81526C30.362 9.81526 30.2845 9.77661 30.1683 9.77661C30.0909 9.73796 29.9747 9.73796 29.8972 9.69931C29.7036 9.622 29.5487 9.50604 29.3938 9.39008C29.084 9.11951 28.8129 8.69433 28.6193 8.26916C28.4256 7.80532 28.3482 7.30284 28.3482 6.83901C28.3482 6.37517 28.4644 5.91134 28.658 5.56347C28.7354 5.40886 28.8516 5.25425 29.0065 5.13829C29.1227 5.02233 29.2776 4.90637 29.3938 4.86772C29.6649 4.71311 29.8972 4.71311 30.0134 4.71311C30.1683 4.71311 30.2458 4.75176 30.3232 4.82907L30.362 4.86772V4.90637C30.4007 4.94503 30.4007 4.94503 30.4394 4.98368C30.4781 5.02233 30.4781 5.06098 30.5169 5.09964L30.5556 5.13829C30.5556 5.13829 30.5556 5.17694 30.5943 5.17694C30.6331 5.2929 30.6718 5.40886 30.6718 5.52482C30.6718 5.64077 30.6331 5.75673 30.6331 5.83404C30.6331 5.87269 30.6331 5.87269 30.6331 5.87269C30.6331 5.87269 30.6331 5.87269 30.6331 5.91134C30.6331 5.95 30.6331 5.95 30.6718 5.95C30.6331 5.95 30.6331 5.91134 30.5943 5.91134C30.4781 5.79538 30.362 5.71808 30.2845 5.71808C30.2071 5.71808 30.1296 5.87269 30.1296 6.10461C30.1296 6.18191 30.1683 6.25922 30.2071 6.33652C30.2458 6.41383 30.3232 6.52979 30.4781 6.60709C30.5556 6.64574 30.6331 6.6844 30.7492 6.6844C30.788 6.6844 30.8267 6.6844 30.8654 6.6844C30.9041 6.6844 30.9429 6.64574 30.9816 6.64574C31.1365 6.60709 31.2527 6.49113 31.3689 6.41383C31.5625 6.22056 31.7174 5.98865 31.7949 5.71808C31.8723 5.44751 31.8723 5.09964 31.7949 4.75176L31.7561 4.6358C31.7561 4.59715 31.7174 4.5585 31.7174 4.51985C31.6787 4.44254 31.6399 4.36524 31.6012 4.28793C31.4463 4.05601 31.3689 3.97871 31.3301 3.9014L31.2914 3.86275L31.2527 3.8241L31.1365 3.70814C30.8654 3.43757 30.4394 3.28296 30.0521 3.24431C29.6649 3.20566 29.1614 3.32161 28.6967 3.59218C28.4644 3.70814 28.2707 3.9014 28.0771 4.13332C27.8835 4.36524 27.7285 4.59715 27.6124 4.90637C27.4962 5.21559 27.4187 5.52482 27.38 5.83404C25.5598 3.94006 22.0357 3.51488 21.6484 3.47622C21.7646 3.86275 22.7328 7.07092 24.7853 8.61703C24.5917 8.69434 24.4368 8.77164 24.2431 8.8876C23.972 9.04221 23.7397 9.27413 23.5848 9.50604C23.3911 9.73796 23.275 9.96987 23.1588 10.2404C22.9651 10.7429 22.9264 11.2454 23.0426 11.6319C23.0813 12.0185 23.3524 12.405 23.6622 12.6369ZM23.8171 5.21559C23.8171 5.21559 26.8378 5.60212 26.4118 7.4188C26.4118 7.38014 24.9015 7.95993 23.8171 5.21559Z" fill="url(#paint8_linear_98_552)"/>
<path d="M31.2137 67.4851L31.3299 67.3691L31.3686 67.3304L31.4073 67.2918C31.4461 67.2145 31.5235 67.1372 31.5623 67.0599C31.601 66.9826 31.6397 66.9053 31.6784 66.828C31.6784 66.7893 31.7172 66.7507 31.7172 66.712L31.7559 66.596C31.8721 66.2482 31.8721 65.9003 31.7946 65.5911C31.7172 65.2819 31.5623 65.0499 31.3686 64.8567C31.2524 64.7407 31.1363 64.6634 30.9813 64.5861C30.9426 64.5861 30.9039 64.5475 30.8652 64.5475C30.8264 64.5475 30.7877 64.5475 30.7103 64.5475C30.6328 64.5475 30.5166 64.5861 30.4392 64.5861C30.2843 64.6634 30.2068 64.7794 30.1294 64.8567C30.0906 64.934 30.0519 65.0113 30.0519 65.0886C30.0132 65.3592 30.1294 65.4751 30.2068 65.5138C30.2843 65.5524 30.4004 65.4365 30.5554 65.3205C30.5941 65.3205 30.5941 65.2819 30.6328 65.2819C30.6328 65.2819 30.6328 65.3205 30.5941 65.3205C30.5554 65.3592 30.5941 65.3592 30.5941 65.3592V65.3978C30.6328 65.4751 30.6328 65.5911 30.6328 65.7457C30.6328 65.8616 30.5941 66.0163 30.5554 66.0936C30.5554 66.0936 30.5554 66.1322 30.5166 66.1322L30.4779 66.1709C30.4392 66.2095 30.4392 66.2482 30.4004 66.2868C30.3617 66.3255 30.3617 66.3255 30.323 66.3641V66.4028H30.2843C30.2843 66.4028 30.2455 66.4028 30.2455 66.4414C30.1294 66.5187 30.0519 66.5574 29.897 66.5574C29.7421 66.5574 29.5097 66.5574 29.2774 66.4028C29.1612 66.3255 29.0063 66.2482 28.8901 66.0936C28.7739 65.9776 28.6577 65.823 28.5416 65.6297C28.3479 65.2819 28.2317 64.818 28.2317 64.3155C28.2317 64.2769 28.2705 64.2769 28.2705 64.2382C28.3479 63.5811 28.5416 62.924 28.8127 62.3056C28.9676 62.0737 29.1612 61.8418 29.3548 61.6872C29.5097 61.5325 29.7034 61.4166 29.897 61.3779C29.9745 61.3393 30.0906 61.3006 30.1681 61.3006C30.2455 61.3006 30.3617 61.262 30.4392 61.262C30.7877 61.2233 31.0975 61.3006 31.2912 61.3393C31.4848 61.4166 31.601 61.4552 31.6397 61.4166C31.6397 61.4166 31.5623 61.3006 31.3686 61.1847C31.175 61.0687 30.8652 60.9141 30.4392 60.8754C30.323 60.8754 30.2068 60.8754 30.1294 60.8754C30.0132 60.8754 29.897 60.9141 29.7808 60.9141C29.7034 60.9141 29.6259 60.9528 29.5485 60.9914C29.5872 60.9141 29.6646 60.7981 29.7034 60.7208C29.7808 60.6049 29.7808 60.4889 29.8195 60.373C29.8583 60.257 29.8583 60.141 29.897 60.0637C29.9357 59.6386 29.8583 59.3293 29.8195 59.0974C29.7421 58.9042 29.6646 58.7882 29.6646 58.7882C29.6259 58.7882 29.6646 58.9042 29.6646 59.1361C29.6646 59.3293 29.6646 59.6386 29.5485 59.9864C29.5097 60.0637 29.471 60.141 29.4323 60.257C29.3936 60.3343 29.3548 60.4116 29.2774 60.4889C29.1612 60.6435 29.0063 60.7981 28.8514 60.9528C28.5028 61.2233 28.0381 61.4166 27.5347 61.4939C27.0312 61.5712 26.5278 61.5712 26.0243 61.4552C25.5596 61.3393 25.0949 61.146 24.7851 60.8754C24.6302 60.7595 24.514 60.6049 24.4365 60.4503C24.3591 60.2957 24.2816 60.1411 24.2429 59.9864C24.1654 59.6772 24.1654 59.4453 24.2042 59.3293C24.2429 59.1747 24.3203 59.0974 24.3978 59.0201L24.4365 58.9815H24.4752C24.514 58.9815 24.5527 58.9428 24.5527 58.9428C24.5914 58.9428 24.6302 58.9042 24.6689 58.9042C24.6689 58.9042 24.7076 58.9042 24.7076 58.8655H24.7463C24.8625 58.8269 24.9787 58.8269 25.1336 58.8655C25.2498 58.9042 25.366 58.9428 25.4434 58.9815L25.4821 59.0201C25.4821 59.0201 25.4821 59.0201 25.5209 59.0201C25.5596 59.0201 25.5596 59.0201 25.5983 59.0201C25.5983 59.0588 25.5596 59.0588 25.5596 59.0974C25.4047 59.2134 25.2885 59.2907 25.2885 59.368C25.2885 59.4453 25.4047 59.5613 25.6758 59.5999C25.7532 59.5999 25.8307 59.5999 25.9081 59.5999C26.0243 59.5613 26.1405 59.5226 26.2567 59.368C26.2954 59.2907 26.3729 59.2134 26.3729 59.0974C26.3729 59.0588 26.3729 59.0201 26.3729 58.9428C26.3729 58.9042 26.3729 58.8655 26.3729 58.8269C26.3341 58.6722 26.2954 58.5176 26.218 58.4017C26.063 58.1698 25.8307 57.9765 25.5596 57.8219C25.2885 57.6673 24.94 57.59 24.5914 57.6286H24.4365C24.3978 57.6286 24.3591 57.6286 24.3203 57.6673C24.2429 57.7059 24.1654 57.7059 24.088 57.7446C24.0105 57.7832 23.9331 57.8219 23.8169 57.8605L23.7394 57.8992L23.662 57.9378L23.5458 58.0152C23.1973 58.2471 22.9649 58.6336 22.8487 59.0201C22.7325 59.4066 22.7325 59.9478 22.9262 60.4503C23.0036 60.7208 23.1585 60.9528 23.3522 61.2233C23.5458 61.4552 23.7782 61.6872 24.0493 61.8804C24.3203 62.0737 24.6302 62.2283 24.94 62.3442C22.6551 63.8131 21.4933 67.2531 21.3384 67.6783C21.7644 67.6397 25.2111 67.3304 27.2249 65.5911C27.2636 65.7843 27.341 66.0163 27.4185 66.2095C27.5347 66.5187 27.6896 66.7893 27.9219 67.0212C28.1156 67.2531 28.3479 67.4464 28.5803 67.601C29.045 67.9102 29.5485 68.0262 29.9745 67.9875C30.4779 67.9489 30.9039 67.7556 31.2137 67.4851ZM23.7007 65.7843C23.7007 65.7843 24.7463 62.8081 26.489 63.6198C26.4503 63.6198 26.7214 65.2046 23.7007 65.7843Z" fill="url(#paint9_linear_98_552)"/>
<path d="M273.605 54.1113C273.489 54.1113 273.411 54.0727 273.334 53.9953C273.179 53.8407 273.179 53.6088 273.334 53.4542L291.071 35.7513L273.14 17.8551C272.985 17.7005 272.985 17.4686 273.14 17.314C273.295 17.1593 273.527 17.1593 273.682 17.314L291.884 35.4807C292.039 35.6353 292.039 35.8672 291.884 36.0218L273.876 53.9953C273.798 54.0727 273.721 54.1113 273.605 54.1113Z" fill="url(#paint10_linear_98_552)"/>
<path d="M273.411 47.3471C273.295 47.3471 273.218 47.3085 273.14 47.2312C272.985 47.0766 272.985 46.8446 273.14 46.69L284.1 35.7513L273.14 24.8126C272.985 24.658 272.985 24.4261 273.14 24.2715C273.295 24.1169 273.527 24.1169 273.682 24.2715L284.913 35.4808C285.068 35.6354 285.068 35.8673 284.913 36.0219L273.682 47.2312C273.605 47.3085 273.527 47.3471 273.411 47.3471Z" fill="url(#paint11_linear_98_552)"/>
<path d="M18.3952 54.1113C18.279 54.1113 18.2016 54.0727 18.1241 53.9953L0.11618 36.0218C-0.0387268 35.8672 -0.0387268 35.6353 0.11618 35.4807L18.3178 17.314C18.4727 17.1593 18.705 17.1593 18.8599 17.314C19.0149 17.4686 19.0149 17.7005 18.8599 17.8551L0.929443 35.7513L18.6663 53.4542C18.8212 53.6088 18.8212 53.8407 18.6663 53.9953C18.5889 54.0727 18.5114 54.1113 18.3952 54.1113Z" fill="url(#paint12_linear_98_552)"/>
<path d="M18.5887 47.3471C18.4726 47.3471 18.3951 47.3085 18.3177 47.2312L7.08688 36.0219C6.93198 35.8673 6.93198 35.6354 7.08688 35.4808L18.3177 24.2715C18.4726 24.1169 18.7049 24.1169 18.8598 24.2715C19.0147 24.4261 19.0147 24.658 18.8598 24.8126L7.90015 35.7513L18.8598 46.69C19.0147 46.8446 19.0147 47.0766 18.8598 47.2312C18.7824 47.3085 18.7049 47.3471 18.5887 47.3471Z" fill="url(#paint13_linear_98_552)"/>
<path d="M49.7967 38.482L49.9527 38.17L50.4467 38.352C50.4467 38.378 50.4467 38.404 50.4467 38.43C50.0827 39.522 49.4067 40.562 48.6527 41.42C47.1967 42.928 45.0907 43.63 43.0367 43.63C40.5667 43.63 38.2527 42.746 36.6407 41.134C34.8467 39.34 33.7807 36.87 33.7027 34.348C33.6247 31.41 34.6127 28.758 36.4327 27.094C38.1227 25.508 40.3327 24.572 42.8287 24.39C44.0767 24.312 45.2467 24.39 46.3387 24.624C47.7427 24.884 48.9387 25.456 49.3807 25.742L49.4587 25.794C49.7447 25.976 50.1607 26.262 50.5247 26.6L50.7587 26.782L48.5747 28.758L48.3927 28.524C47.0407 26.678 44.8567 25.248 42.5167 25.248C40.0987 25.248 38.1487 26.782 37.2907 28.992C36.7447 30.37 36.5367 31.93 36.6667 33.646C37.0047 37.936 39.8907 41.368 44.3627 41.42C46.1567 41.42 47.5607 40.796 48.2107 40.276C49.0167 39.6 49.6147 38.924 49.7967 38.482ZM58.4243 29.356C62.6103 29.356 65.6523 32.32 65.6523 36.402C65.6523 40.484 62.6103 43.448 58.4243 43.448C54.2383 43.448 51.1963 40.484 51.1963 36.402C51.1963 32.32 54.2383 29.356 58.4243 29.356ZM57.3583 30.24V30.214C55.2003 30.214 53.8483 31.956 53.8483 34.738C53.8483 38.43 56.1623 42.538 59.4643 42.538C61.6223 42.538 62.9743 40.796 62.9743 37.988C62.9743 34.322 60.6603 30.24 57.3583 30.24ZM81.7985 42.72L81.9285 42.668V43.214H76.2345V42.668L76.4685 42.642C77.2745 42.564 77.8725 41.888 77.8725 41.082V34.14C77.8725 31.28 76.3125 30.682 75.0125 30.682C73.5825 30.682 72.4645 31.436 71.0605 32.372L70.8005 32.554V41.108C70.8005 41.914 71.3985 42.59 72.2045 42.668L72.4385 42.694V43.24H66.7445V42.694L66.9785 42.668C67.7845 42.59 68.3825 41.914 68.3825 41.108V32.918C68.3825 32.554 68.3045 31.956 68.1485 31.644C67.9405 31.202 67.4205 30.994 66.9785 31.176L66.2245 31.488L65.9125 30.968L69.3965 29.278L69.5265 29.408C70.1245 30.032 70.5405 30.682 70.6705 31.696C70.7225 31.67 70.7745 31.644 70.8265 31.618C72.2825 30.63 74.1025 29.408 76.2345 29.408C78.0285 29.408 80.1605 30.266 80.1605 34.4V41.134C80.1605 41.94 80.7585 42.616 81.5645 42.694L81.7985 42.72ZM97.4645 42.72L97.5945 42.668V43.214H91.9005V42.668L92.1345 42.642C92.9405 42.564 93.5385 41.888 93.5385 41.082V34.14C93.5385 31.28 91.9785 30.682 90.6785 30.682C89.2485 30.682 88.1305 31.436 86.7265 32.372L86.4665 32.554V41.108C86.4665 41.914 87.0645 42.59 87.8705 42.668L88.1045 42.694V43.24H82.4105V42.694L82.6445 42.668C83.4505 42.59 84.0485 41.914 84.0485 41.108V32.918C84.0485 32.554 83.9705 31.956 83.8145 31.644C83.6065 31.202 83.0865 30.994 82.6445 31.176L81.8905 31.488L81.5785 30.968L85.0625 29.278L85.1925 29.408C85.7905 30.032 86.2065 30.682 86.3365 31.696C86.3885 31.67 86.4405 31.644 86.4925 31.618C87.9485 30.63 89.7685 29.408 91.9005 29.408C93.6945 29.408 95.8265 30.266 95.8265 34.4V41.134C95.8265 41.94 96.4245 42.616 97.2305 42.694L97.4645 42.72ZM111.519 33.49L111.207 33.672L100.755 38.638C101.639 40.952 103.277 42.46 105.201 42.668C106.995 42.876 108.399 41.94 109.049 40.094L109.101 39.912H111.181L110.921 40.302C109.647 42.33 107.411 43.474 104.785 43.474C101.821 43.474 99.3765 41.992 98.2325 39.522C98.2065 39.444 98.1805 39.366 98.1545 39.288C97.7905 38.404 97.6085 37.442 97.6085 36.402C97.6085 32.32 100.651 29.356 104.837 29.356C107.697 29.356 110.115 30.734 111.285 33.074L111.311 33.126C111.337 33.152 111.363 33.178 111.389 33.204L111.519 33.49ZM100.183 34.27C100.053 35.466 100.157 36.714 100.495 37.91L108.711 34.01C107.801 31.826 106.189 30.396 104.343 30.188C104.187 30.162 104.031 30.162 103.875 30.162C101.873 30.162 100.469 31.696 100.183 34.27ZM124.408 40.328L124.616 40.224L125.188 40.614L125.006 40.874C123.758 42.538 121.652 43.5 119.234 43.5C115.048 43.5 112.006 40.536 112.006 36.454C112.006 32.398 114.866 29.564 119.13 29.408C121.548 29.304 123.446 29.824 124.954 30.994L125.188 31.176L122.9 33.256L122.744 32.996C121.73 31.41 119.832 30.292 118.116 30.292C115.958 30.292 114.606 32.008 114.606 34.79C114.606 38.456 116.686 42.408 120.066 42.408C121.626 42.408 123.238 41.628 124.408 40.328ZM133.049 41.524L132.997 41.55C133.153 41.446 133.309 41.342 133.465 41.264L133.855 41.056V41.81L133.387 42.096C132.217 42.824 131.281 43.396 130.683 43.422C127.719 43.422 126.783 41.186 126.757 38.56V31.28H125.015L129.175 26.34V29.33H134.349L132.191 31.28H132.087C131.463 31.28 129.955 31.254 129.149 31.254V38.846C129.149 40.042 129.435 40.9 129.981 41.394C130.449 41.836 131.125 42.018 132.009 41.966C132.347 41.94 132.711 41.732 133.049 41.524ZM169.375 24.442H169.427C170.441 26.678 170.545 29.174 169.713 31.462C169.635 31.696 169.557 31.878 169.479 32.06L168.101 35.128L164.877 42.694L165.995 45.19H162.849L158.325 33.698L154.503 42.72L155.621 45.216H152.475L145.169 26.678C144.831 25.846 144.025 25.3 143.141 25.3H142.881V24.754H149.563V25.3H149.303C148.887 25.3 148.523 25.482 148.289 25.82C148.055 26.158 148.003 26.574 148.159 26.964L148.991 29.07H149.017L154.061 41.784L157.909 32.736L155.673 27.068C155.387 26.34 154.919 25.69 154.321 25.196L153.749 24.728H159.937V25.274H159.677C159.261 25.274 158.897 25.456 158.663 25.794C158.429 26.132 158.377 26.548 158.533 26.938L164.409 41.784L165.631 38.872L167.373 34.608C167.945 33.23 168.153 31.722 167.971 30.266C167.815 28.654 167.113 27.068 166.099 25.82L165.943 25.638L168.673 23.168L168.829 23.428C169.037 23.74 169.219 24.078 169.375 24.442ZM181.961 39.106L181.909 39.132V38.69L181.935 37.832C179.959 42.018 177.671 43.552 176.111 43.552C174.187 43.552 172.627 42.746 171.795 41.342C171.093 40.172 171.041 38.742 171.665 37.624C173.095 35.024 175.617 34.816 178.035 34.608C179.413 34.478 180.817 34.348 181.987 33.776C181.935 31.826 181.259 30.864 179.335 30.864C177.229 30.864 174.603 32.034 173.407 32.606L173.251 32.684L170.937 30.578L171.353 30.422C173.095 29.798 175.019 29.434 176.917 29.356C177.827 29.33 178.737 29.46 179.647 29.746C182.091 30.552 184.327 32.008 184.327 34.894V41.16C184.327 41.316 184.405 41.446 184.535 41.524C184.665 41.602 184.821 41.628 184.977 41.576L185.185 42.044L181.961 43.76V39.106ZM176.371 41.446L176.397 41.42C178.971 41.68 180.583 38.482 181.181 37.286C181.233 37.182 181.285 37.078 181.311 37C181.727 36.22 181.935 35.544 181.961 34.894V34.712C180.739 35.154 179.647 35.206 178.607 35.258C177.203 35.336 175.981 35.414 174.655 36.35C173.797 36.948 173.745 38.118 173.979 39.028C174.265 40.146 175.123 41.316 176.371 41.446ZM190.577 42.72L190.863 42.746V43.292H185.169V42.746L185.403 42.72C186.209 42.642 186.807 41.966 186.807 41.16V25.768C186.807 25.612 186.729 25.482 186.599 25.404C186.469 25.326 186.313 25.3 186.157 25.352L185.013 25.794V25.144L189.173 23.168V41.16C189.173 41.966 189.771 42.642 190.577 42.72ZM195.884 42.72L196.17 42.746V43.292H190.476V42.746L190.71 42.72C191.516 42.642 192.114 41.966 192.114 41.16V25.768C192.114 25.612 192.036 25.482 191.906 25.404C191.776 25.326 191.62 25.3 191.464 25.352L190.32 25.794V25.144L194.48 23.168V41.16C194.48 41.966 195.078 42.642 195.884 42.72ZM210.186 33.49L209.874 33.672L199.422 38.638C200.306 40.952 201.944 42.46 203.868 42.668C205.662 42.876 207.066 41.94 207.716 40.094L207.768 39.912H209.848L209.588 40.302C208.314 42.33 206.078 43.474 203.452 43.474C200.488 43.474 198.044 41.992 196.9 39.522C196.874 39.444 196.848 39.366 196.822 39.288C196.458 38.404 196.276 37.442 196.276 36.402C196.276 32.32 199.318 29.356 203.504 29.356C206.364 29.356 208.782 30.734 209.952 33.074L209.978 33.126C210.004 33.152 210.03 33.178 210.056 33.204L210.186 33.49ZM198.85 34.27C198.72 35.466 198.824 36.714 199.162 37.91L207.378 34.01C206.468 31.826 204.856 30.396 203.01 30.188C202.854 30.162 202.698 30.162 202.542 30.162C200.54 30.162 199.136 31.696 198.85 34.27ZM217.803 41.524L217.751 41.55C217.907 41.446 218.063 41.342 218.219 41.264L218.609 41.056V41.81L218.141 42.096C216.971 42.824 216.035 43.396 215.437 43.422C212.473 43.422 211.537 41.186 211.511 38.56V31.28H209.769L213.929 26.34V29.33H219.103L216.945 31.28H216.841C216.217 31.28 214.709 31.254 213.903 31.254V38.846C213.903 40.042 214.189 40.9 214.735 41.394C215.203 41.836 215.879 42.018 216.763 41.966C217.101 41.94 217.465 41.732 217.803 41.524Z" fill="#F2DA85"/>
<path d="M256 31H254V28.5H240V42.5H254V40H256V44.5H238V26.5H256V31ZM246 40.5V30.5H257V40.5H246ZM251 37C251.417 37 251.771 36.8543 252.063 36.563C252.355 36.2717 252.501 35.9173 252.5 35.5C252.499 35.0827 252.354 34.7287 252.063 34.438C251.772 34.1473 251.418 34.0013 251 34C250.582 33.9987 250.228 34.1447 249.938 34.438C249.648 34.7313 249.502 35.0853 249.5 35.5C249.498 35.9147 249.644 36.269 249.938 36.563C250.232 36.857 250.586 37.0027 251 37ZM255 38.5V32.5H248V38.5H255Z" fill="#F2DA85"/>
<defs>
<linearGradient id="paint0_linear_98_552" x1="146.019" y1="0.5" x2="146.019" y2="70.5" gradientUnits="userSpaceOnUse">
<stop stop-color="#F2DA85"/>
<stop offset="1" stop-color="#F2CD48"/>
</linearGradient>
<linearGradient id="paint1_linear_98_552" x1="145.593" y1="3.4762" x2="145.593" y2="67.6396" gradientUnits="userSpaceOnUse">
<stop stop-color="#F2DA85"/>
<stop offset="1" stop-color="#F2CD48"/>
</linearGradient>
<linearGradient id="paint2_linear_98_552" x1="231.586" y1="5.98877" x2="231.586" y2="6.76097" gradientUnits="userSpaceOnUse">
<stop stop-color="#F2DA85"/>
<stop offset="1" stop-color="#F2CD48"/>
</linearGradient>
<linearGradient id="paint3_linear_98_552" x1="231.586" y1="64.3544" x2="231.586" y2="65.1266" gradientUnits="userSpaceOnUse">
<stop stop-color="#F2DA85"/>
<stop offset="1" stop-color="#F2CD48"/>
</linearGradient>
<linearGradient id="paint4_linear_98_552" x1="60.8011" y1="5.98877" x2="60.8011" y2="6.76097" gradientUnits="userSpaceOnUse">
<stop stop-color="#F2DA85"/>
<stop offset="1" stop-color="#F2CD48"/>
</linearGradient>
<linearGradient id="paint5_linear_98_552" x1="60.8011" y1="64.3544" x2="60.8011" y2="65.1266" gradientUnits="userSpaceOnUse">
<stop stop-color="#F2DA85"/>
<stop offset="1" stop-color="#F2CD48"/>
</linearGradient>
<linearGradient id="paint6_linear_98_552" x1="266.074" y1="3.70093" x2="266.074" y2="13.3814" gradientUnits="userSpaceOnUse">
<stop stop-color="#F2DA85"/>
<stop offset="1" stop-color="#F2CD48"/>
</linearGradient>
<linearGradient id="paint7_linear_98_552" x1="266.065" y1="58.0054" x2="266.065" y2="68.38" gradientUnits="userSpaceOnUse">
<stop stop-color="#F2DA85"/>
<stop offset="1" stop-color="#F2CD48"/>
</linearGradient>
<linearGradient id="paint8_linear_98_552" x1="26.7507" y1="3.23706" x2="26.7507" y2="13.0721" gradientUnits="userSpaceOnUse">
<stop stop-color="#F2DA85"/>
<stop offset="1" stop-color="#F2CD48"/>
</linearGradient>
<linearGradient id="paint9_linear_98_552" x1="26.5935" y1="57.6188" x2="26.5935" y2="67.9947" gradientUnits="userSpaceOnUse">
<stop stop-color="#F2DA85"/>
<stop offset="1" stop-color="#F2CD48"/>
</linearGradient>
<linearGradient id="paint10_linear_98_552" x1="282.512" y1="17.198" x2="282.512" y2="54.1113" gradientUnits="userSpaceOnUse">
<stop stop-color="#F2DA85"/>
<stop offset="1" stop-color="#F2CD48"/>
</linearGradient>
<linearGradient id="paint11_linear_98_552" x1="279.027" y1="24.1555" x2="279.027" y2="47.3471" gradientUnits="userSpaceOnUse">
<stop stop-color="#F2DA85"/>
<stop offset="1" stop-color="#F2CD48"/>
</linearGradient>
<linearGradient id="paint12_linear_98_552" x1="9.48806" y1="17.198" x2="9.48806" y2="54.1113" gradientUnits="userSpaceOnUse">
<stop stop-color="#F2DA85"/>
<stop offset="1" stop-color="#F2CD48"/>
</linearGradient>
<linearGradient id="paint13_linear_98_552" x1="12.9734" y1="24.1555" x2="12.9734" y2="47.3471" gradientUnits="userSpaceOnUse">
<stop stop-color="#F2DA85"/>
<stop offset="1" stop-color="#F2CD48"/>
</linearGradient>
</defs>
</svg>
