<svg width="24" height="24" viewBox="0 0 24 24" fill="none" xmlns="http://www.w3.org/2000/svg">
<path d="M4.74194 2H18.8065V22H16.7419V12.8387H16.7217C16.4935 10.3067 14.3656 8.32258 11.7742 8.32258C9.18282 8.32258 7.05487 10.3067 6.8267 12.8387H6.80645V22H4.74194V2Z" fill="#F2DA85"/>
<path d="M1 4.83871L1.83871 7.67742H2.54839V19.1613C2.19207 19.1613 1.90323 19.4501 1.90323 19.8065V20.5806H1.77419C1.41788 20.5806 1.12903 20.8695 1.12903 21.2258V22H8.35484V21.2258C8.35484 20.8695 8.06599 20.5806 7.70968 20.5806H7.58065V19.8065C7.58065 19.4501 7.2918 19.1613 6.93548 19.1613H6.16129V4.83871H1Z" fill="#F2DA85"/>
<path d="M16.871 19.1613C16.5147 19.1613 16.2258 19.4501 16.2258 19.8065V20.5806H16.0968C15.7405 20.5806 15.4516 20.8695 15.4516 21.2258V22H22.6774V21.2258C22.6774 20.8695 22.3886 20.5806 22.0323 20.5806H21.9032V19.8065C21.9032 19.4501 21.6144 19.1613 21.2581 19.1613V7.67742H21.9677L22.8065 4.83871H17.6452V19.1613H16.871Z" fill="#F2DA85"/>
</svg>
