<svg width="292" height="70" viewBox="0 0 292 70" fill="none" xmlns="http://www.w3.org/2000/svg">
<path d="M19 16.5C31.4 15.7 34.8333 5.83333 35 1H257.5C258.3 12.2 268.5 16 273.5 16.5V53.5C261.1 55.1 257.667 64.5 257.5 69H35C33.8 57.8 23.8333 54.3333 19 54V16.5Z" fill="#7C6D54" fill-opacity="0.1"/>
<path d="M274.069 53.9205C274.069 41.2811 274.069 28.6416 274.069 16.0409C274.069 15.6157 273.721 15.3065 273.334 15.3065C265.279 15.1905 258.579 8.85146 258.501 0.734401C258.501 0.309221 258.153 0 257.766 0C252.46 0 247.154 0 241.849 0C228.333 0 214.818 0 201.302 0C183.139 0 198.32 0 180.157 0C160.949 0 141.74 0 122.532 0C105.84 0 89.1491 0 72.4966 0C61.9241 0 51.3517 0 40.7406 0C38.8042 0 36.8679 0 34.9316 0C34.5443 0 34.157 0.347874 34.1958 0.734401C34.4281 9.19934 27.0313 15.8862 18.705 15.6157C18.2791 15.6157 17.9692 15.9636 17.9692 16.3501C17.9692 28.9895 17.9692 41.6289 17.9692 54.2684C17.9692 54.6549 18.3178 55.0414 18.705 55.0028C26.8764 54.7322 33.9247 61.0326 34.1958 69.2656C34.1958 69.6908 34.5443 70 34.9316 70C40.2371 70 45.5427 70 50.8483 70C64.3639 70 77.8796 70 91.3952 70C109.558 70 127.682 70 145.845 70C165.054 70 184.262 70 203.471 70C220.162 70 203.548 70 220.201 70C230.773 70 241.345 70 251.956 70C253.893 70 255.829 70 257.766 70C258.191 70 258.501 69.6521 258.501 69.2656C258.617 61.1485 265.279 54.7708 273.334 54.6935C274.302 54.6935 274.302 53.1861 273.334 53.1861C264.427 53.302 257.107 60.3368 256.991 69.2656C257.223 69.0337 257.494 68.7631 257.727 68.5312C252.421 68.5312 247.116 68.5312 241.81 68.5312C228.294 68.5312 214.779 68.5312 201.263 68.5312C183.1 68.5312 198.281 68.5312 180.118 68.5312C160.91 68.5312 141.701 68.5312 122.493 68.5312C105.802 68.5312 89.1104 68.5312 72.4578 68.5312C61.8854 68.5312 51.313 68.5312 40.7019 68.5312C38.7655 68.5312 36.8292 68.5312 34.8928 68.5312C35.1252 68.7631 35.3963 69.0337 35.6287 69.2656C35.3188 60.2595 27.6509 53.1861 18.6276 53.4953C18.86 53.7272 19.131 53.9978 19.3634 54.2297C19.3634 41.5903 19.3634 28.9509 19.3634 16.3114C19.131 16.5433 18.86 16.8139 18.6276 17.0458C27.8058 17.3937 35.8997 9.93374 35.6674 0.695748C35.435 0.927664 35.1639 1.19823 34.9316 1.43015C40.2371 1.43015 45.5427 1.43015 50.8483 1.43015C64.3639 1.43015 77.8796 1.43015 91.3952 1.43015C109.558 1.43015 127.682 1.43015 145.845 1.43015C165.054 1.43015 184.262 1.43015 203.471 1.43015C220.162 1.43015 203.548 1.43015 220.201 1.43015C230.773 1.43015 241.345 1.43015 251.956 1.43015C253.893 1.43015 255.829 1.43015 257.766 1.43015C257.533 1.19823 257.262 0.927664 257.03 0.695748C257.146 9.62452 264.504 16.6593 273.372 16.7753C273.14 16.5433 272.869 16.2728 272.637 16.0409C272.637 28.6803 272.637 41.3197 272.637 53.9205C272.559 54.8868 274.069 54.8868 274.069 53.9205Z" fill="url(#paint0_linear_98_575)"/>
<path d="M269.964 51.4853C269.964 40.4693 269.964 29.4146 269.964 18.3986C269.964 18.2053 269.809 18.0121 269.616 18.0507C261.599 18.2054 254.784 11.7504 254.977 3.67194C254.977 3.47868 254.822 3.32407 254.629 3.32407C249.207 3.32407 243.824 3.32407 238.402 3.28542C224.693 3.24676 210.983 3.24676 197.235 3.20811C178.956 3.16946 193.944 3.16946 175.665 3.13081C156.534 3.09215 137.403 3.09215 118.272 3.0535C102.006 3.0535 85.7411 3.01485 69.5145 3.01485C59.9103 3.01485 50.306 2.9762 40.7018 2.9762C39.54 2.9762 38.3782 2.9762 37.2164 2.9762C37.0228 2.9762 36.8291 3.13081 36.8679 3.32407C37.4875 8.69679 34.1182 14.0309 29.5098 16.5433C27.1862 17.8188 24.1655 18.7078 21.4933 18.6692C21.2997 18.6692 21.1448 18.8238 21.1448 19.0171C21.1448 29.8785 21.1448 40.7785 21.1448 51.6399C21.1448 51.8332 21.2997 52.0264 21.4933 51.9878C25.5596 51.9105 29.1225 52.7608 32.2594 55.5052C35.4737 58.3268 37.41 62.54 37.5649 66.7918C37.5649 66.985 37.7198 67.1396 37.9135 67.1396C43.3352 67.1396 48.757 67.101 54.1787 67.101C67.9267 67.0623 81.6747 67.0623 95.4228 67.0237C113.741 66.985 132.058 66.9464 150.376 66.9077C169.507 66.8691 188.599 66.8304 207.73 66.7918C223.918 66.7531 206.762 66.7145 222.95 66.6758C232.399 66.6758 241.849 66.6372 251.337 66.6372C252.421 66.6372 253.467 66.6372 254.551 66.6372C254.745 66.6372 254.9 66.4825 254.9 66.2893C255.016 58.4428 261.871 51.8718 269.693 51.7559C270.158 51.7559 270.158 51.0215 269.693 51.0215C261.483 51.1374 254.319 58.0176 254.203 66.2893C254.319 66.1733 254.435 66.0574 254.551 65.9414C249.129 65.9414 243.708 65.9801 238.286 65.9801C224.538 66.0187 210.79 66.0187 197.042 66.0574C178.724 66.096 193.711 66.1347 175.394 66.1733C156.263 66.212 137.17 66.2506 118.039 66.2893C101.851 66.3279 85.7023 66.3666 69.5145 66.3666C60.0652 66.3666 50.6159 66.4052 41.1278 66.4052C40.0434 66.4052 38.9978 66.4052 37.9135 66.4052C38.0297 66.5212 38.1458 66.6372 38.262 66.7531C38.1071 62.2308 36.0546 58.0176 32.7241 54.9254C29.5485 51.9878 25.6758 51.0988 21.4546 51.1761C21.5708 51.292 21.687 51.408 21.8031 51.524C21.8031 40.6626 21.8031 29.7625 21.8031 18.9011C21.687 19.0171 21.5708 19.133 21.4546 19.249C24.4753 19.2876 27.6896 18.244 30.2843 16.7752C34.8928 14.3401 38.1846 8.61949 37.5649 3.32407C37.4488 3.44003 37.3326 3.55599 37.2164 3.67194C42.6381 3.67194 48.0212 3.67194 53.4429 3.7106C67.1522 3.74925 80.8615 3.74925 94.6095 3.7879C112.889 3.82656 131.206 3.82656 149.485 3.86521C168.616 3.90386 187.747 3.90386 206.878 3.94251C223.105 3.98117 206.065 3.98117 222.292 4.01982C231.896 4.01982 241.5 4.05847 251.104 4.05847C252.266 4.05847 253.428 4.05847 254.59 4.05847C254.474 3.94251 254.358 3.82656 254.241 3.7106C254.048 12.1755 261.212 18.9784 269.616 18.8238C269.5 18.7078 269.383 18.5919 269.267 18.4759C269.267 29.4919 269.267 40.5466 269.267 51.5626C269.229 51.9878 269.964 51.9878 269.964 51.4853Z" fill="url(#paint1_linear_98_575)"/>
<path d="M252.111 5.48877H211.061V6.26097H252.111V5.48877Z" fill="url(#paint2_linear_98_575)"/>
<path d="M252.111 63.8544H211.061V64.6266H252.111V63.8544Z" fill="url(#paint3_linear_98_575)"/>
<path d="M81.3263 5.48877H40.2759V6.26097H81.3263V5.48877Z" fill="url(#paint4_linear_98_575)"/>
<path d="M81.3263 63.8544H40.2759V64.6266H81.3263V63.8544Z" fill="url(#paint5_linear_98_575)"/>
<path d="M269.732 11.5958C269.848 11.2093 269.81 10.7068 269.616 10.2043C269.538 9.97239 269.384 9.70182 269.19 9.46991C268.996 9.23799 268.764 9.00608 268.532 8.85147C268.377 8.73551 268.183 8.6582 267.989 8.5809C270.042 7.03479 271.01 3.82662 271.126 3.44009C270.7 3.47874 267.215 3.90392 265.395 5.7979C265.356 5.48868 265.279 5.14081 265.162 4.87024C265.046 4.59967 264.891 4.3291 264.698 4.09719C264.504 3.86527 264.272 3.71066 264.078 3.55605C263.652 3.28548 263.149 3.16952 262.723 3.20818C262.335 3.24683 261.909 3.40144 261.638 3.67201L261.522 3.78797L261.483 3.82662L261.445 3.86527C261.406 3.94258 261.328 4.01988 261.29 4.09719C261.251 4.17449 261.212 4.2518 261.173 4.3291C261.173 4.36776 261.135 4.40641 261.135 4.44506L261.096 4.56102C260.98 4.90889 261.019 5.21811 261.096 5.52734C261.173 5.7979 261.328 6.02982 261.522 6.22308C261.638 6.30039 261.754 6.41635 261.909 6.455C261.948 6.455 261.987 6.49365 262.025 6.49365C262.064 6.49365 262.103 6.49365 262.142 6.49365C262.219 6.49365 262.335 6.455 262.413 6.41635C262.568 6.33904 262.645 6.22308 262.684 6.14578C262.723 6.06847 262.723 5.99117 262.761 5.91386C262.761 5.64329 262.684 5.52734 262.606 5.52734C262.529 5.48868 262.413 5.60464 262.297 5.7206C262.258 5.7206 262.258 5.75925 262.219 5.75925C262.219 5.75925 262.219 5.7206 262.258 5.7206C262.258 5.68195 262.258 5.68195 262.258 5.68195V5.64329C262.219 5.56599 262.219 5.45003 262.219 5.33407C262.219 5.21811 262.258 5.10216 262.297 4.9862C262.297 4.9862 262.297 4.94755 262.335 4.94755L262.374 4.90889C262.413 4.87024 262.413 4.83159 262.451 4.79294C262.49 4.75428 262.49 4.75428 262.529 4.71563V4.67698H262.568C262.568 4.67698 262.606 4.67698 262.606 4.63832C262.723 4.56102 262.8 4.52237 262.916 4.52237C263.032 4.52237 263.265 4.52237 263.536 4.67698C263.652 4.75428 263.807 4.83159 263.923 4.94755C264.039 5.0635 264.155 5.21811 264.272 5.37273C264.465 5.7206 264.581 6.14578 264.581 6.64826C264.581 7.1121 264.504 7.61458 264.31 8.07841C264.117 8.54224 263.846 8.92877 263.536 9.19934C263.381 9.35395 263.187 9.43126 263.032 9.50856C262.955 9.54721 262.839 9.58587 262.761 9.58587C262.684 9.58587 262.568 9.62452 262.49 9.62452C262.142 9.66317 261.871 9.58587 261.677 9.54721C261.483 9.50856 261.367 9.46991 261.367 9.46991C261.367 9.46991 261.445 9.58587 261.638 9.66317C261.832 9.77913 262.103 9.89509 262.529 9.93374C262.645 9.93374 262.723 9.93374 262.839 9.93374C262.955 9.93374 263.071 9.89509 263.187 9.89509C263.265 9.85643 263.381 9.85644 263.458 9.81778C263.42 9.89509 263.381 9.97239 263.342 10.0497C263.303 10.1657 263.265 10.2816 263.226 10.3589C263.187 10.4749 263.187 10.5522 263.187 10.6681C263.149 11.0547 263.226 11.3639 263.303 11.5958C263.381 11.7891 263.458 11.905 263.458 11.905C263.497 11.905 263.458 11.7891 263.458 11.5572C263.458 11.3639 263.458 11.0547 263.536 10.7454C263.575 10.6681 263.613 10.5908 263.613 10.5135C263.652 10.4362 263.691 10.3589 263.768 10.2816C263.884 10.127 264.001 9.97239 264.194 9.85644C264.388 9.70182 264.62 9.58587 264.891 9.46991C265.55 9.35395 266.169 9.27665 266.828 9.3153C266.866 9.3153 266.866 9.3153 266.905 9.27665C267.37 9.35395 267.796 9.54721 268.106 9.81778C268.26 9.93374 268.377 10.0884 268.454 10.2043C268.532 10.3589 268.609 10.5135 268.648 10.6295C268.725 10.9001 268.725 11.132 268.686 11.2479C268.648 11.3639 268.609 11.4798 268.493 11.5572L268.454 11.5958H268.415C268.377 11.5958 268.338 11.6345 268.338 11.6345C268.299 11.6345 268.26 11.6731 268.222 11.6731C268.222 11.6731 268.183 11.6731 268.183 11.7118H268.144C268.028 11.7504 267.912 11.7504 267.796 11.7118C267.68 11.6731 267.563 11.6345 267.486 11.5958C267.486 11.5958 267.447 11.5958 267.447 11.5572C267.447 11.5572 267.447 11.5572 267.408 11.5572C267.37 11.5572 267.37 11.5572 267.331 11.5572L267.37 11.5185C267.486 11.4025 267.641 11.3252 267.602 11.2479C267.602 11.1706 267.486 11.0547 267.254 11.016C267.176 11.016 267.099 11.016 267.021 11.0547C266.944 11.0933 266.789 11.132 266.711 11.2866C266.673 11.3639 266.634 11.4412 266.595 11.5185C266.595 11.5572 266.595 11.5958 266.595 11.6345C266.595 11.6731 266.595 11.7118 266.595 11.7504C266.634 11.905 266.673 12.0596 266.75 12.1756C266.905 12.4075 267.099 12.5621 267.37 12.7167C267.641 12.8327 267.951 12.91 268.299 12.8713L268.415 12.8327C268.454 12.8327 268.493 12.8327 268.532 12.794C268.609 12.7554 268.686 12.7554 268.764 12.7167C268.841 12.6781 268.919 12.6394 268.996 12.6008L269.074 12.5621L269.151 12.5235L269.267 12.4462C269.384 12.3302 269.655 11.9823 269.732 11.5958ZM266.324 7.34401C265.937 5.56599 268.919 5.14081 268.919 5.14081C267.834 7.88515 266.324 7.34401 266.324 7.34401Z" fill="url(#paint6_linear_98_575)"/>
<path d="M262.684 67.8741C263.11 67.9128 263.613 67.7582 264.078 67.4876C264.31 67.333 264.543 67.1397 264.736 66.9078C264.93 66.6759 265.124 66.4053 265.24 66.0961C265.317 65.9029 265.395 65.7096 265.433 65.4777C267.447 67.2557 270.894 67.5263 271.32 67.5649C271.204 67.1784 270.042 63.6996 267.718 62.2308C268.028 62.1149 268.338 61.9989 268.609 61.767C268.88 61.5738 269.112 61.3418 269.306 61.1099C269.5 60.878 269.616 60.6074 269.732 60.3369C269.926 59.8344 269.926 59.2932 269.809 58.9067C269.693 58.5202 269.422 58.1337 269.112 57.9017L268.996 57.8244L268.919 57.7858L268.841 57.7471C268.764 57.7085 268.686 57.6698 268.57 57.6312C268.493 57.5925 268.415 57.5925 268.338 57.5539C268.299 57.5539 268.26 57.5152 268.222 57.5152H268.067C267.679 57.4766 267.37 57.5539 267.099 57.7085C266.827 57.8631 266.595 58.0177 266.44 58.2883C266.363 58.4042 266.285 58.5588 266.285 58.7135C266.285 58.7521 266.285 58.7908 266.285 58.8294C266.285 58.8681 266.285 58.9067 266.285 58.984C266.285 59.0613 266.363 59.1773 266.401 59.2546C266.518 59.4092 266.634 59.4479 266.75 59.4865C266.866 59.5252 266.944 59.5252 266.982 59.4865C267.253 59.4479 267.37 59.3319 267.37 59.2546C267.37 59.1773 267.253 59.0613 267.099 58.984C267.06 58.984 267.06 58.9454 267.06 58.9067C267.06 58.9067 267.099 58.9067 267.137 58.9067C267.176 58.9067 267.176 58.9067 267.176 58.9067C267.176 58.9067 267.215 58.9067 267.215 58.8681C267.292 58.8294 267.408 58.7521 267.525 58.7521C267.641 58.7135 267.796 58.7135 267.912 58.7521H267.951C267.951 58.7521 267.989 58.7521 267.989 58.7908C268.028 58.7908 268.067 58.8294 268.105 58.8294C268.144 58.8681 268.183 58.8681 268.183 58.8681H268.222L268.26 58.9067C268.338 58.984 268.415 59.0613 268.454 59.2159C268.493 59.3319 268.531 59.5638 268.415 59.873C268.377 60.0276 268.299 60.1823 268.222 60.3369C268.144 60.4915 268.028 60.6461 267.873 60.762C267.563 61.0326 267.137 61.2259 266.634 61.3418C266.13 61.4578 265.627 61.4578 265.123 61.3805C264.62 61.3032 264.155 61.1099 263.807 60.8394C263.613 60.7234 263.497 60.5688 263.381 60.3755C263.303 60.2982 263.265 60.2209 263.226 60.1436C263.187 60.0663 263.148 59.989 263.11 59.873C262.994 59.5252 262.994 59.2159 262.994 59.0227C262.994 58.8294 263.032 58.6748 262.994 58.6748C262.994 58.6748 262.916 58.7908 262.839 58.984C262.761 59.1773 262.684 59.5252 262.761 59.9503C262.761 60.0663 262.8 60.1436 262.839 60.2596C262.877 60.3755 262.916 60.4915 262.955 60.6074C262.994 60.6847 263.032 60.8007 263.11 60.878C263.032 60.8393 262.955 60.8394 262.877 60.8007C262.761 60.762 262.645 60.762 262.529 60.762C262.413 60.762 262.296 60.762 262.219 60.762C261.793 60.8007 261.483 60.9553 261.29 61.0713C261.096 61.1872 261.018 61.2645 261.018 61.3032C261.018 61.3418 261.135 61.3032 261.367 61.2259C261.561 61.1872 261.87 61.1099 262.219 61.1486C262.296 61.1486 262.413 61.1872 262.49 61.1872C262.568 61.2259 262.684 61.2259 262.761 61.2645C262.955 61.3418 263.11 61.4578 263.303 61.5738C263.497 61.7284 263.691 61.9603 263.846 62.1922C264.117 62.8106 264.31 63.4677 264.388 64.1248C264.388 64.1635 264.426 64.1635 264.426 64.2021C264.426 64.7046 264.31 65.1684 264.117 65.5163C264.039 65.7096 263.923 65.8255 263.768 65.9802C263.652 66.0961 263.497 66.2121 263.381 66.2894C263.11 66.444 262.877 66.4826 262.761 66.444C262.606 66.444 262.529 66.4053 262.413 66.328L262.374 66.2894H262.335V66.2507C262.296 66.2121 262.296 66.2121 262.258 66.1734C262.219 66.1348 262.219 66.0961 262.18 66.0575L262.142 66.0188C262.142 66.0188 262.142 65.9802 262.103 65.9802C262.064 65.8642 262.025 65.7482 262.025 65.6323C262.025 65.5163 262.064 65.3617 262.064 65.2844C262.064 65.2458 262.064 65.2458 262.064 65.2458C262.064 65.2458 262.064 65.2458 262.064 65.2071C262.064 65.1684 262.064 65.1685 262.025 65.1685C262.064 65.1685 262.064 65.2071 262.103 65.2071C262.219 65.3231 262.335 65.439 262.451 65.4004C262.529 65.3617 262.606 65.2458 262.606 64.9752C262.606 64.8979 262.568 64.8206 262.529 64.7433C262.49 64.666 262.413 64.55 262.219 64.4727C262.142 64.4341 262.025 64.3954 261.948 64.434C261.909 64.434 261.87 64.434 261.793 64.434C261.754 64.434 261.716 64.4727 261.677 64.4727C261.522 64.55 261.406 64.6273 261.29 64.7433C261.096 64.9365 260.941 65.2071 260.864 65.4777C260.786 65.7869 260.786 66.1348 260.902 66.4826L260.941 66.5986C260.941 66.6373 260.98 66.6759 260.98 66.7146C261.018 66.7919 261.057 66.8692 261.096 66.9465C261.135 67.0238 261.212 67.1011 261.251 67.1784L261.29 67.217L261.328 67.2557L261.444 67.3717C261.832 67.6809 262.258 67.8741 262.684 67.8741ZM266.285 63.545C268.028 62.772 269.074 65.7096 269.074 65.7096C266.053 65.1684 266.285 63.545 266.285 63.545Z" fill="url(#paint7_linear_98_575)"/>
<path d="M23.6622 12.1369L23.7784 12.2142L23.8559 12.2529L23.9333 12.2915C24.0108 12.3302 24.0882 12.3688 24.1657 12.4075C24.2431 12.4461 24.3206 12.4461 24.398 12.4848C24.4368 12.4848 24.4755 12.5234 24.5142 12.5234L24.6304 12.5621C24.9789 12.6007 25.3275 12.5234 25.5598 12.4075C25.8309 12.2915 26.0246 12.0983 26.1795 11.8663C26.2569 11.7504 26.3344 11.6344 26.3344 11.4412C26.3344 11.4025 26.3344 11.3639 26.3344 11.3252C26.3344 11.2865 26.3344 11.2479 26.3344 11.2092C26.3344 11.1319 26.2957 11.016 26.2182 10.9773C26.102 10.8227 25.9858 10.7841 25.9084 10.7454C25.8309 10.7068 25.7535 10.7068 25.676 10.7068C25.4049 10.7454 25.3275 10.8227 25.3275 10.9387C25.3275 11.016 25.4437 11.0933 25.5598 11.2092C25.5986 11.2092 25.5986 11.2479 25.5986 11.2479C25.5986 11.2479 25.5598 11.2479 25.5211 11.2479C25.4824 11.2479 25.4824 11.2479 25.4824 11.2479C25.4824 11.2479 25.4437 11.2479 25.4437 11.2865C25.3662 11.3252 25.25 11.3639 25.1338 11.4025C25.0177 11.4412 24.9015 11.4025 24.7853 11.4025H24.7466C24.7466 11.4025 24.7079 11.4025 24.7079 11.3639C24.6691 11.3639 24.6304 11.3252 24.5917 11.3252C24.5529 11.2865 24.5142 11.2865 24.5142 11.2865H24.4755L24.4368 11.2479C24.3593 11.1706 24.2819 11.0933 24.2431 10.9387C24.2044 10.8227 24.2044 10.5908 24.2819 10.3202C24.3206 10.1656 24.398 10.0497 24.4755 9.89505C24.5529 9.74044 24.6691 9.62448 24.824 9.50853C25.1338 9.23796 25.5598 9.08335 26.0246 8.96739C26.0633 8.96739 26.0633 8.96739 26.102 9.00604C26.7604 8.92874 27.38 9.00604 28.0384 9.16065C28.3094 9.27661 28.5418 9.39257 28.7354 9.54718C28.8903 9.66314 29.0453 9.81775 29.1614 9.97236C29.2389 10.0497 29.2389 10.127 29.3163 10.2043C29.3551 10.2816 29.3938 10.3589 29.3938 10.4362C29.4712 10.7454 29.4712 11.0546 29.4712 11.2479C29.4712 11.4412 29.4325 11.5571 29.4712 11.5958C29.4712 11.5958 29.5487 11.4798 29.6262 11.2865C29.7036 11.0933 29.7811 10.7841 29.7423 10.3589C29.7423 10.2429 29.7036 10.1656 29.7036 10.0497C29.6649 9.93371 29.6262 9.81775 29.5874 9.74044C29.5487 9.66314 29.51 9.58583 29.4712 9.50853C29.5487 9.54718 29.6649 9.58583 29.7423 9.58583C29.8585 9.62448 29.9747 9.62448 30.0909 9.62448C30.2071 9.62448 30.3232 9.62448 30.4007 9.62448C30.788 9.58583 31.0978 9.46987 31.2914 9.35392C31.485 9.23796 31.5625 9.16065 31.5625 9.16065C31.5625 9.16065 31.4463 9.16065 31.2527 9.23796C31.059 9.27661 30.7492 9.35392 30.4394 9.31526C30.362 9.31526 30.2845 9.27661 30.1683 9.27661C30.0909 9.23796 29.9747 9.23796 29.8972 9.19931C29.7036 9.122 29.5487 9.00604 29.3938 8.89008C29.084 8.61951 28.8129 8.19433 28.6193 7.76916C28.4256 7.30532 28.3482 6.80284 28.3482 6.33901C28.3482 5.87517 28.4644 5.41134 28.658 5.06347C28.7354 4.90886 28.8516 4.75425 29.0065 4.63829C29.1227 4.52233 29.2776 4.40637 29.3938 4.36772C29.6649 4.21311 29.8972 4.21311 30.0134 4.21311C30.1683 4.21311 30.2458 4.25176 30.3232 4.32907L30.362 4.36772V4.40637C30.4007 4.44503 30.4007 4.44503 30.4394 4.48368C30.4781 4.52233 30.4781 4.56098 30.5169 4.59964L30.5556 4.63829C30.5556 4.63829 30.5556 4.67694 30.5943 4.67694C30.6331 4.7929 30.6718 4.90886 30.6718 5.02482C30.6718 5.14077 30.6331 5.25673 30.6331 5.33404C30.6331 5.37269 30.6331 5.37269 30.6331 5.37269C30.6331 5.37269 30.6331 5.37269 30.6331 5.41134C30.6331 5.45 30.6331 5.45 30.6718 5.45C30.6331 5.45 30.6331 5.41134 30.5943 5.41134C30.4781 5.29538 30.362 5.21808 30.2845 5.21808C30.2071 5.21808 30.1296 5.37269 30.1296 5.60461C30.1296 5.68191 30.1683 5.75922 30.2071 5.83652C30.2458 5.91383 30.3232 6.02979 30.4781 6.10709C30.5556 6.14574 30.6331 6.1844 30.7492 6.1844C30.788 6.1844 30.8267 6.1844 30.8654 6.1844C30.9041 6.1844 30.9429 6.14574 30.9816 6.14574C31.1365 6.10709 31.2527 5.99113 31.3689 5.91383C31.5625 5.72056 31.7174 5.48865 31.7949 5.21808C31.8723 4.94751 31.8723 4.59964 31.7949 4.25176L31.7561 4.1358C31.7561 4.09715 31.7174 4.0585 31.7174 4.01985C31.6787 3.94254 31.6399 3.86524 31.6012 3.78793C31.4463 3.55601 31.3689 3.47871 31.3301 3.4014L31.2914 3.36275L31.2527 3.3241L31.1365 3.20814C30.8654 2.93757 30.4394 2.78296 30.0521 2.74431C29.6649 2.70566 29.1614 2.82161 28.6967 3.09218C28.4644 3.20814 28.2707 3.4014 28.0771 3.63332C27.8835 3.86524 27.7285 4.09715 27.6124 4.40637C27.4962 4.71559 27.4187 5.02482 27.38 5.33404C25.5598 3.44006 22.0357 3.01488 21.6484 2.97622C21.7646 3.36275 22.7328 6.57092 24.7853 8.11703C24.5917 8.19434 24.4368 8.27164 24.2431 8.3876C23.972 8.54221 23.7397 8.77413 23.5848 9.00604C23.3911 9.23796 23.275 9.46987 23.1588 9.74044C22.9651 10.2429 22.9264 10.7454 23.0426 11.1319C23.0813 11.5185 23.3524 11.905 23.6622 12.1369ZM23.8171 4.71559C23.8171 4.71559 26.8378 5.10212 26.4118 6.9188C26.4118 6.88014 24.9015 7.45993 23.8171 4.71559Z" fill="url(#paint8_linear_98_575)"/>
<path d="M31.2137 66.9851L31.3299 66.8691L31.3686 66.8304L31.4073 66.7918C31.4461 66.7145 31.5235 66.6372 31.5623 66.5599C31.601 66.4826 31.6397 66.4053 31.6784 66.328C31.6784 66.2893 31.7172 66.2507 31.7172 66.212L31.7559 66.096C31.8721 65.7482 31.8721 65.4003 31.7946 65.0911C31.7172 64.7819 31.5623 64.5499 31.3686 64.3567C31.2524 64.2407 31.1363 64.1634 30.9813 64.0861C30.9426 64.0861 30.9039 64.0475 30.8652 64.0475C30.8264 64.0475 30.7877 64.0475 30.7103 64.0475C30.6328 64.0475 30.5166 64.0861 30.4392 64.0861C30.2843 64.1634 30.2068 64.2794 30.1294 64.3567C30.0906 64.434 30.0519 64.5113 30.0519 64.5886C30.0132 64.8592 30.1294 64.9751 30.2068 65.0138C30.2843 65.0524 30.4004 64.9365 30.5554 64.8205C30.5941 64.8205 30.5941 64.7819 30.6328 64.7819C30.6328 64.7819 30.6328 64.8205 30.5941 64.8205C30.5554 64.8592 30.5941 64.8592 30.5941 64.8592V64.8978C30.6328 64.9751 30.6328 65.0911 30.6328 65.2457C30.6328 65.3616 30.5941 65.5163 30.5554 65.5936C30.5554 65.5936 30.5554 65.6322 30.5166 65.6322L30.4779 65.6709C30.4392 65.7095 30.4392 65.7482 30.4004 65.7868C30.3617 65.8255 30.3617 65.8255 30.323 65.8641V65.9028H30.2843C30.2843 65.9028 30.2455 65.9028 30.2455 65.9414C30.1294 66.0187 30.0519 66.0574 29.897 66.0574C29.7421 66.0574 29.5097 66.0574 29.2774 65.9028C29.1612 65.8255 29.0063 65.7482 28.8901 65.5936C28.7739 65.4776 28.6577 65.323 28.5416 65.1297C28.3479 64.7819 28.2317 64.318 28.2317 63.8155C28.2317 63.7769 28.2705 63.7769 28.2705 63.7382C28.3479 63.0811 28.5416 62.424 28.8127 61.8056C28.9676 61.5737 29.1612 61.3418 29.3548 61.1872C29.5097 61.0325 29.7034 60.9166 29.897 60.8779C29.9745 60.8393 30.0906 60.8006 30.1681 60.8006C30.2455 60.8006 30.3617 60.762 30.4392 60.762C30.7877 60.7233 31.0975 60.8006 31.2912 60.8393C31.4848 60.9166 31.601 60.9552 31.6397 60.9166C31.6397 60.9166 31.5623 60.8006 31.3686 60.6847C31.175 60.5687 30.8652 60.4141 30.4392 60.3754C30.323 60.3754 30.2068 60.3754 30.1294 60.3754C30.0132 60.3754 29.897 60.4141 29.7808 60.4141C29.7034 60.4141 29.6259 60.4528 29.5485 60.4914C29.5872 60.4141 29.6646 60.2981 29.7034 60.2208C29.7808 60.1049 29.7808 59.9889 29.8195 59.873C29.8583 59.757 29.8583 59.641 29.897 59.5637C29.9357 59.1386 29.8583 58.8293 29.8195 58.5974C29.7421 58.4042 29.6646 58.2882 29.6646 58.2882C29.6259 58.2882 29.6646 58.4042 29.6646 58.6361C29.6646 58.8293 29.6646 59.1386 29.5485 59.4864C29.5097 59.5637 29.471 59.641 29.4323 59.757C29.3936 59.8343 29.3548 59.9116 29.2774 59.9889C29.1612 60.1435 29.0063 60.2981 28.8514 60.4528C28.5028 60.7233 28.0381 60.9166 27.5347 60.9939C27.0312 61.0712 26.5278 61.0712 26.0243 60.9552C25.5596 60.8393 25.0949 60.646 24.7851 60.3754C24.6302 60.2595 24.514 60.1049 24.4365 59.9503C24.3591 59.7957 24.2816 59.6411 24.2429 59.4864C24.1654 59.1772 24.1654 58.9453 24.2042 58.8293C24.2429 58.6747 24.3203 58.5974 24.3978 58.5201L24.4365 58.4815H24.4752C24.514 58.4815 24.5527 58.4428 24.5527 58.4428C24.5914 58.4428 24.6302 58.4042 24.6689 58.4042C24.6689 58.4042 24.7076 58.4042 24.7076 58.3655H24.7463C24.8625 58.3269 24.9787 58.3269 25.1336 58.3655C25.2498 58.4042 25.366 58.4428 25.4434 58.4815L25.4821 58.5201C25.4821 58.5201 25.4821 58.5201 25.5209 58.5201C25.5596 58.5201 25.5596 58.5201 25.5983 58.5201C25.5983 58.5588 25.5596 58.5588 25.5596 58.5974C25.4047 58.7134 25.2885 58.7907 25.2885 58.868C25.2885 58.9453 25.4047 59.0613 25.6758 59.0999C25.7532 59.0999 25.8307 59.0999 25.9081 59.0999C26.0243 59.0613 26.1405 59.0226 26.2567 58.868C26.2954 58.7907 26.3729 58.7134 26.3729 58.5974C26.3729 58.5588 26.3729 58.5201 26.3729 58.4428C26.3729 58.4042 26.3729 58.3655 26.3729 58.3269C26.3341 58.1722 26.2954 58.0176 26.218 57.9017C26.063 57.6698 25.8307 57.4765 25.5596 57.3219C25.2885 57.1673 24.94 57.09 24.5914 57.1286H24.4365C24.3978 57.1286 24.3591 57.1286 24.3203 57.1673C24.2429 57.2059 24.1654 57.2059 24.088 57.2446C24.0105 57.2832 23.9331 57.3219 23.8169 57.3605L23.7394 57.3992L23.662 57.4378L23.5458 57.5152C23.1973 57.7471 22.9649 58.1336 22.8487 58.5201C22.7325 58.9066 22.7325 59.4478 22.9262 59.9503C23.0036 60.2208 23.1585 60.4528 23.3522 60.7233C23.5458 60.9552 23.7782 61.1872 24.0493 61.3804C24.3203 61.5737 24.6302 61.7283 24.94 61.8442C22.6551 63.3131 21.4933 66.7531 21.3384 67.1783C21.7644 67.1397 25.2111 66.8304 27.2249 65.0911C27.2636 65.2843 27.341 65.5163 27.4185 65.7095C27.5347 66.0187 27.6896 66.2893 27.9219 66.5212C28.1156 66.7531 28.3479 66.9464 28.5803 67.101C29.045 67.4102 29.5485 67.5262 29.9745 67.4875C30.4779 67.4489 30.9039 67.2556 31.2137 66.9851ZM23.7007 65.2843C23.7007 65.2843 24.7463 62.3081 26.489 63.1198C26.4503 63.1198 26.7214 64.7046 23.7007 65.2843Z" fill="url(#paint9_linear_98_575)"/>
<path d="M273.605 53.6113C273.489 53.6113 273.411 53.5727 273.334 53.4953C273.179 53.3407 273.179 53.1088 273.334 52.9542L291.071 35.2513L273.14 17.3551C272.985 17.2005 272.985 16.9686 273.14 16.814C273.295 16.6593 273.527 16.6593 273.682 16.814L291.884 34.9807C292.039 35.1353 292.039 35.3672 291.884 35.5218L273.876 53.4953C273.798 53.5727 273.721 53.6113 273.605 53.6113Z" fill="url(#paint10_linear_98_575)"/>
<path d="M273.411 46.8471C273.295 46.8471 273.218 46.8085 273.14 46.7312C272.985 46.5766 272.985 46.3446 273.14 46.19L284.1 35.2513L273.14 24.3126C272.985 24.158 272.985 23.9261 273.14 23.7715C273.295 23.6169 273.527 23.6169 273.682 23.7715L284.913 34.9808C285.068 35.1354 285.068 35.3673 284.913 35.5219L273.682 46.7312C273.605 46.8085 273.527 46.8471 273.411 46.8471Z" fill="url(#paint11_linear_98_575)"/>
<path d="M18.3952 53.6113C18.279 53.6113 18.2016 53.5727 18.1241 53.4953L0.11618 35.5218C-0.0387268 35.3672 -0.0387268 35.1353 0.11618 34.9807L18.3178 16.814C18.4727 16.6593 18.705 16.6593 18.8599 16.814C19.0149 16.9686 19.0149 17.2005 18.8599 17.3551L0.929443 35.2513L18.6663 52.9542C18.8212 53.1088 18.8212 53.3407 18.6663 53.4953C18.5889 53.5727 18.5114 53.6113 18.3952 53.6113Z" fill="url(#paint12_linear_98_575)"/>
<path d="M18.5887 46.8471C18.4726 46.8471 18.3951 46.8085 18.3177 46.7312L7.08688 35.5219C6.93198 35.3673 6.93198 35.1354 7.08688 34.9808L18.3177 23.7715C18.4726 23.6169 18.7049 23.6169 18.8598 23.7715C19.0147 23.9261 19.0147 24.158 18.8598 24.3126L7.90015 35.2513L18.8598 46.19C19.0147 46.3446 19.0147 46.5766 18.8598 46.7312C18.7824 46.8085 18.7049 46.8471 18.5887 46.8471Z" fill="url(#paint13_linear_98_575)"/>
<path d="M125.651 41.362L122.141 43.26V40.66C120.581 42.246 118.371 43.13 115.719 43.13C109.999 43.13 105.839 39.074 105.839 33.484C105.839 27.894 109.999 23.838 115.719 23.838C118.267 23.838 120.971 24.618 122.661 26.646L122.817 26.828L120.009 29.402L119.957 28.908C119.775 27.426 118.839 26.1 117.461 25.372C116.551 24.956 115.667 24.748 114.679 24.748C111.013 24.748 108.569 27.686 108.569 32.028C108.569 36.942 111.845 42.22 116.733 42.22C121.361 42.22 122.063 37.644 122.063 34.914C122.063 34.576 122.037 34.212 122.011 33.848H114.445L115.251 33.12H124.793V40.478C124.793 40.634 124.871 40.764 125.001 40.842C125.131 40.92 125.287 40.946 125.443 40.894L125.651 41.362ZM136.261 23.63C142.007 23.63 146.193 27.738 146.193 33.38C146.193 39.022 142.007 43.13 136.261 43.13C130.489 43.13 126.303 39.022 126.303 33.38C126.303 27.738 130.489 23.63 136.261 23.63ZM135.221 24.566C131.529 24.566 129.059 27.53 129.059 31.924C129.059 36.89 132.361 42.22 137.301 42.22C140.993 42.22 143.463 39.256 143.463 34.836C143.463 29.87 140.161 24.566 135.221 24.566Z" fill="#F2DA85"/>
<path d="M175.993 35L169 28.1L171.128 26L180.25 35L171.128 44L169 41.9L175.993 35Z" fill="#F2DA85"/>
<defs>
<linearGradient id="paint0_linear_98_575" x1="146.019" y1="0" x2="146.019" y2="70" gradientUnits="userSpaceOnUse">
<stop stop-color="#F2DA85"/>
<stop offset="1" stop-color="#F2CD48"/>
</linearGradient>
<linearGradient id="paint1_linear_98_575" x1="145.593" y1="2.9762" x2="145.593" y2="67.1396" gradientUnits="userSpaceOnUse">
<stop stop-color="#F2DA85"/>
<stop offset="1" stop-color="#F2CD48"/>
</linearGradient>
<linearGradient id="paint2_linear_98_575" x1="231.586" y1="5.48877" x2="231.586" y2="6.26097" gradientUnits="userSpaceOnUse">
<stop stop-color="#F2DA85"/>
<stop offset="1" stop-color="#F2CD48"/>
</linearGradient>
<linearGradient id="paint3_linear_98_575" x1="231.586" y1="63.8544" x2="231.586" y2="64.6266" gradientUnits="userSpaceOnUse">
<stop stop-color="#F2DA85"/>
<stop offset="1" stop-color="#F2CD48"/>
</linearGradient>
<linearGradient id="paint4_linear_98_575" x1="60.8011" y1="5.48877" x2="60.8011" y2="6.26097" gradientUnits="userSpaceOnUse">
<stop stop-color="#F2DA85"/>
<stop offset="1" stop-color="#F2CD48"/>
</linearGradient>
<linearGradient id="paint5_linear_98_575" x1="60.8011" y1="63.8544" x2="60.8011" y2="64.6266" gradientUnits="userSpaceOnUse">
<stop stop-color="#F2DA85"/>
<stop offset="1" stop-color="#F2CD48"/>
</linearGradient>
<linearGradient id="paint6_linear_98_575" x1="266.074" y1="3.20093" x2="266.074" y2="12.8814" gradientUnits="userSpaceOnUse">
<stop stop-color="#F2DA85"/>
<stop offset="1" stop-color="#F2CD48"/>
</linearGradient>
<linearGradient id="paint7_linear_98_575" x1="266.065" y1="57.5054" x2="266.065" y2="67.88" gradientUnits="userSpaceOnUse">
<stop stop-color="#F2DA85"/>
<stop offset="1" stop-color="#F2CD48"/>
</linearGradient>
<linearGradient id="paint8_linear_98_575" x1="26.7507" y1="2.73706" x2="26.7507" y2="12.5721" gradientUnits="userSpaceOnUse">
<stop stop-color="#F2DA85"/>
<stop offset="1" stop-color="#F2CD48"/>
</linearGradient>
<linearGradient id="paint9_linear_98_575" x1="26.5935" y1="57.1188" x2="26.5935" y2="67.4947" gradientUnits="userSpaceOnUse">
<stop stop-color="#F2DA85"/>
<stop offset="1" stop-color="#F2CD48"/>
</linearGradient>
<linearGradient id="paint10_linear_98_575" x1="282.512" y1="16.698" x2="282.512" y2="53.6113" gradientUnits="userSpaceOnUse">
<stop stop-color="#F2DA85"/>
<stop offset="1" stop-color="#F2CD48"/>
</linearGradient>
<linearGradient id="paint11_linear_98_575" x1="279.027" y1="23.6555" x2="279.027" y2="46.8471" gradientUnits="userSpaceOnUse">
<stop stop-color="#F2DA85"/>
<stop offset="1" stop-color="#F2CD48"/>
</linearGradient>
<linearGradient id="paint12_linear_98_575" x1="9.48806" y1="16.698" x2="9.48806" y2="53.6113" gradientUnits="userSpaceOnUse">
<stop stop-color="#F2DA85"/>
<stop offset="1" stop-color="#F2CD48"/>
</linearGradient>
<linearGradient id="paint13_linear_98_575" x1="12.9734" y1="23.6555" x2="12.9734" y2="46.8471" gradientUnits="userSpaceOnUse">
<stop stop-color="#F2DA85"/>
<stop offset="1" stop-color="#F2CD48"/>
</linearGradient>
</defs>
</svg>
