<svg width="150" height="61" viewBox="0 0 150 61" fill="none" xmlns="http://www.w3.org/2000/svg">
<rect width="150" height="50" fill="url(#paint0_linear_7_2638)" fill-opacity="0.3"/>
<g clip-path="url(#clip0_7_2638)">
<path d="M146 49.7122C146 49.7122 145.279 45.8439 140.264 49.7439C140.264 49.7439 144.984 53.6439 146 49.7122ZM144.853 49.7439C144.853 49.839 144.754 49.9342 144.656 49.9342C144.558 49.9342 144.459 49.839 144.459 49.7439C144.459 49.6488 144.558 49.5537 144.656 49.5537C144.754 49.5537 144.853 49.6171 144.853 49.7439ZM141.509 49.7439C141.509 49.7439 141.837 48.5707 144.132 49.7439C144.132 49.7439 141.968 50.9171 141.509 49.7439Z" fill="url(#paint1_linear_7_2638)"/>
<path d="M139.871 50.2513C139.576 50.2513 139.346 50.0293 139.346 49.744C139.346 49.4586 139.576 49.2366 139.871 49.2366C140.166 49.2366 140.395 49.4586 140.395 49.744C140.395 50.0293 140.166 50.2513 139.871 50.2513Z" fill="url(#paint2_linear_7_2638)"/>
<path d="M135.806 50.2829C135.511 50.2829 135.282 50.061 135.282 49.7756C135.282 49.4903 135.511 49.2683 135.806 49.2683C136.101 49.2683 136.331 49.4903 136.331 49.7756C136.363 50.061 136.101 50.2829 135.806 50.2829Z" fill="url(#paint3_linear_7_2638)"/>
<path d="M137.838 51.1073L139.641 49.7439L137.838 48.3805C137.642 48.8244 136.036 49.7439 136.036 49.7439C136.003 49.7756 137.642 50.6634 137.838 51.1073Z" fill="url(#paint4_linear_7_2638)"/>
<path d="M90.6714 49.7439C87.3936 47.2074 86.9347 49.7439 86.9347 49.7439C87.5903 52.3122 90.6714 49.7439 90.6714 49.7439ZM87.8197 49.6171C87.8853 49.6171 87.9508 49.6805 87.9508 49.7439C87.9508 49.8074 87.8853 49.8708 87.8197 49.8708C87.7542 49.8708 87.6886 49.8074 87.6886 49.7439C87.6886 49.6805 87.7542 49.6171 87.8197 49.6171ZM88.1475 49.7439C89.6553 48.983 89.8519 49.7439 89.8519 49.7439C89.5569 50.5049 88.1475 49.7439 88.1475 49.7439Z" fill="url(#paint5_linear_7_2638)"/>
<path d="M90.9336 50.0927C91.1302 50.0927 91.2941 49.9341 91.2941 49.7756C91.2941 49.5854 91.1302 49.4268 90.9663 49.4268C90.7697 49.4268 90.6058 49.5854 90.6058 49.7439C90.573 49.9341 90.7369 50.0927 90.9336 50.0927Z" fill="url(#paint6_linear_7_2638)"/>
<path d="M135.806 49.5854H91.2614V49.9342H135.806V49.5854Z" fill="url(#paint7_linear_7_2638)"/>
<path d="M74.5134 59.3004C74.5134 59.3004 74.4941 59.2819 74.4555 59.2633C74.4362 59.2447 74.4169 59.2447 74.3782 59.2076C74.3396 59.189 74.3203 59.1519 74.2817 59.1334C74.2238 59.0777 74.1465 58.9849 74.0886 58.8549C74.0307 58.7435 73.9921 58.595 73.9728 58.428C73.9341 58.0938 73.9728 57.6669 74.1079 57.2028C74.1852 56.9801 74.2624 56.7202 74.3782 56.4789C74.4362 56.3489 74.5134 56.2376 74.5906 56.1076C74.6679 55.9777 74.7644 55.8663 74.8417 55.7364C75.1892 55.2166 75.5754 54.6597 76.0388 54.1214C76.2705 53.843 76.5408 53.5831 76.8304 53.3418C76.9849 53.2304 77.1394 53.1005 77.2939 53.0076C77.4676 52.8963 77.6414 52.8034 77.8152 52.7292C77.989 52.6364 78.1821 52.5807 78.3751 52.525C78.4717 52.4879 78.5682 52.4879 78.6841 52.4508C78.7806 52.4322 78.8965 52.4136 78.993 52.4136C79.4178 52.3765 79.8619 52.3765 80.2867 52.4508C80.4991 52.4879 80.7115 52.5436 80.9046 52.6178C81.0977 52.6921 81.2907 52.8034 81.4259 52.9519C81.5804 53.0819 81.6962 53.249 81.7348 53.4346C81.7928 53.6202 81.7735 53.8058 81.6962 53.9729C81.6769 54.01 81.6769 54.0286 81.6576 54.0657C81.6383 54.0843 81.619 54.1214 81.5997 54.14C81.5611 54.1957 81.5224 54.2513 81.4645 54.2885C81.368 54.3813 81.2521 54.4555 81.117 54.5298C80.866 54.6597 80.557 54.734 80.2674 54.7525C79.9778 54.7897 79.6688 54.7711 79.3599 54.7525C79.0703 54.734 78.7806 54.6597 78.5103 54.5669C77.9504 54.3813 77.429 54.14 76.9463 53.8801C76.4443 53.6202 75.9809 53.3418 75.5368 53.0633C74.6486 52.5064 73.8569 51.9867 73.1425 51.5226C72.4281 51.0585 71.8102 50.6687 71.3082 50.3532C70.8255 50.019 70.2076 49.6106 69.4738 49.1837C69.107 48.9795 68.7015 48.7568 68.2574 48.5711C67.8133 48.3855 67.3306 48.1999 66.7899 48.1256C66.5196 48.0885 66.23 48.0514 65.9404 48.0885C65.6507 48.1071 65.3418 48.1813 65.0715 48.3113C64.9942 48.3484 64.9363 48.3855 64.8591 48.4226C64.8012 48.4598 64.7239 48.4969 64.666 48.5526C64.6081 48.6083 64.5501 48.6454 64.4922 48.7011C64.4343 48.7568 64.3764 48.8124 64.3184 48.8867C64.2219 49.0166 64.1447 49.2023 64.1254 49.3693C64.106 49.555 64.1447 49.722 64.2026 49.8705C64.3184 50.1861 64.5501 50.446 64.7818 50.6687C65.0329 50.8915 65.3032 51.0771 65.6121 51.207C65.7666 51.2813 65.9211 51.337 66.0755 51.3927C66.1528 51.4112 66.23 51.4298 66.3265 51.4669L66.4424 51.5041C66.481 51.5226 66.5196 51.5226 66.5582 51.5226C66.6355 51.5412 66.732 51.5597 66.8093 51.5783C66.8865 51.5969 66.983 51.5969 67.0603 51.6154L67.1954 51.634L67.3306 51.6526C67.4078 51.6526 67.5044 51.6711 67.5816 51.6711C68.5857 51.7082 69.5511 51.5969 70.4586 51.4484C70.6903 51.4112 70.9027 51.3741 71.1344 51.3184C71.1923 51.2999 71.2502 51.2999 71.3082 51.2813C71.3661 51.2627 71.424 51.2627 71.482 51.2442C71.5978 51.207 71.7137 51.1885 71.8102 51.1514C72.235 51.0029 72.6405 50.8358 73.0266 50.6687C73.799 50.316 74.5134 49.9819 75.1892 49.6663C75.865 49.3508 76.5022 49.0723 77.0815 48.8496C77.6607 48.6268 78.2207 48.4412 78.7034 48.3298C79.1861 48.2184 79.6302 48.1627 79.9778 48.1813C80.3253 48.1999 80.5956 48.2741 80.7501 48.3669C80.7887 48.3855 80.8273 48.4041 80.8466 48.4226C80.8853 48.4412 80.9046 48.4598 80.9239 48.4783C80.9625 48.5154 80.9818 48.5154 80.9818 48.5154C80.9818 48.5154 80.9625 48.4969 80.9239 48.4598C80.9046 48.4412 80.8853 48.4226 80.8466 48.4041C80.8273 48.3855 80.7887 48.3669 80.7501 48.3298C80.5956 48.237 80.3253 48.1256 79.9585 48.0885C79.5916 48.0514 79.1475 48.0885 78.6455 48.1813C78.1821 48.2741 77.6221 48.4226 77.0235 48.6268C76.425 48.831 75.7685 49.0909 75.0734 49.3879C74.3782 49.6849 73.6638 50.0005 72.8915 50.3346C72.5053 50.5017 72.1191 50.6502 71.7137 50.7801C71.6171 50.8172 71.5013 50.8358 71.4047 50.8729C71.3468 50.8915 71.3082 50.8915 71.2502 50.91L71.0958 50.9472C70.8834 50.9843 70.6517 51.0214 70.42 51.0585C69.5318 51.207 68.5857 51.3184 67.6395 51.2627C67.5623 51.2627 67.4851 51.2442 67.4078 51.2442H67.292L67.1761 51.2256C67.0989 51.207 67.0217 51.207 66.9444 51.1885C66.8672 51.1699 66.7899 51.1514 66.7127 51.1514C66.6741 51.1514 66.6355 51.1328 66.5969 51.1328L66.481 51.0957C66.4038 51.0771 66.3265 51.0585 66.2686 51.04C66.1335 50.9843 65.979 50.9472 65.8438 50.8729C65.5735 50.7615 65.3225 50.5945 65.1101 50.4088C64.8977 50.2232 64.7239 50.0005 64.6274 49.7777C64.5888 49.6663 64.5501 49.5364 64.5695 49.4436C64.5695 49.3322 64.6081 49.2208 64.6853 49.128C64.7239 49.0723 64.7625 49.0352 64.8012 48.9981C64.8398 48.9609 64.8977 48.9053 64.9556 48.8681C65.0136 48.831 65.0715 48.7939 65.1101 48.7568C65.168 48.7196 65.2259 48.6825 65.2839 48.6639C65.7473 48.4412 66.2879 48.4041 66.7899 48.4783C67.292 48.5526 67.7747 48.7011 68.1995 48.8681C68.6436 49.0352 69.0491 49.2208 69.4159 49.425C70.169 49.8148 70.7868 50.1861 71.3082 50.5017C71.7909 50.8358 72.3895 51.2627 73.0846 51.7454C73.7604 52.228 74.552 52.7849 75.4209 53.3789C75.865 53.6759 76.3284 53.9543 76.8111 54.2513C77.3132 54.5298 77.8345 54.8082 78.4331 55.0124C78.7227 55.1052 79.0509 55.198 79.3792 55.2352C79.7074 55.2723 80.0357 55.2723 80.3639 55.2352C80.6922 55.198 81.0397 55.1238 81.368 54.9753C81.5224 54.8825 81.6769 54.8082 81.8121 54.6783C81.8893 54.6226 81.9472 54.5483 82.0052 54.4741C82.0245 54.437 82.0631 54.3998 82.0824 54.3627C82.1017 54.3256 82.121 54.2885 82.1403 54.2328C82.2562 53.9729 82.2948 53.6759 82.1982 53.416C82.121 53.1561 81.9472 52.9148 81.7542 52.7478C81.5611 52.5807 81.3294 52.4322 81.0977 52.3394C80.866 52.2466 80.6343 52.1723 80.3832 52.1352C79.9005 52.0609 79.4371 52.0609 78.9737 52.1166C78.8579 52.1166 78.742 52.1537 78.6262 52.1723C78.5103 52.1909 78.3944 52.228 78.2979 52.2466C78.0855 52.3023 77.8731 52.3951 77.68 52.4879C77.4869 52.5807 77.2939 52.6921 77.1201 52.8034C76.9463 52.9148 76.7918 53.0448 76.6374 53.1747C76.3284 53.4346 76.0581 53.7316 75.8264 54.01C75.3437 54.5855 74.9961 55.1609 74.6679 55.6992C74.5906 55.8292 74.5134 55.9591 74.4362 56.0891C74.3589 56.219 74.301 56.3489 74.2431 56.4789C74.1272 56.7388 74.05 56.9986 73.9921 57.24C73.8762 57.7226 73.8569 58.1495 73.9148 58.5022C73.9535 58.6693 73.9921 58.8178 74.0693 58.9477C74.1272 59.0591 74.2045 59.1519 74.2817 59.2076C74.3203 59.2447 74.3589 59.2633 74.3782 59.2819C74.4169 59.3004 74.4362 59.319 74.4555 59.319C74.4941 59.2819 74.5134 59.3004 74.5134 59.3004Z" fill="url(#paint8_linear_7_2638)"/>
<path d="M74.5133 59.3004C74.5133 59.3004 74.5326 59.2818 74.5712 59.2633C74.5905 59.2633 74.6098 59.2447 74.6484 59.2261C74.6871 59.2076 74.7064 59.189 74.745 59.1519C74.8222 59.0962 74.8995 59.0034 74.9574 58.892C75.0153 58.7806 75.0732 58.6321 75.1119 58.4465C75.1698 58.0938 75.1505 57.6669 75.0346 57.1842C74.9767 56.9429 74.8995 56.683 74.7836 56.4232C74.7257 56.2932 74.6678 56.1633 74.5905 56.0334C74.5133 55.9034 74.4361 55.7735 74.3588 55.6435C74.0306 55.1238 73.6637 54.5298 73.2003 53.9543C72.9686 53.6759 72.6983 53.3789 72.3893 53.119C72.2349 52.9891 72.0804 52.8591 71.9066 52.7477C71.7328 52.6364 71.5398 52.525 71.3467 52.4322C71.1536 52.3394 70.9412 52.2651 70.7288 52.1909C70.6129 52.1537 70.5164 52.1352 70.4005 52.1166C70.2847 52.098 70.1688 52.0795 70.053 52.0609C69.6089 52.0052 69.1262 52.0052 68.6435 52.0795C68.4118 52.1166 68.1607 52.1909 67.929 52.2837C67.6973 52.3765 67.4656 52.5064 67.2725 52.692C67.0795 52.8591 66.9057 53.1004 66.8284 53.3603C66.7512 53.6202 66.7705 53.9172 66.8864 54.1771C66.9057 54.2142 66.925 54.2699 66.9443 54.307C66.9636 54.3441 67.0022 54.3813 67.0215 54.4184C67.0795 54.4926 67.1374 54.5669 67.2146 54.6226C67.3498 54.7525 67.5042 54.8453 67.6587 54.9196C67.987 55.0681 68.3152 55.1423 68.6628 55.1795C68.991 55.2166 69.3193 55.198 69.6475 55.1795C69.9758 55.1423 70.2847 55.0681 70.5936 54.9567C71.1922 54.7525 71.7135 54.4741 72.2156 54.1956C72.7176 53.9172 73.181 53.6202 73.6058 53.3232C74.4747 52.7477 75.247 52.1909 75.9421 51.6897C76.6179 51.207 77.2165 50.7801 77.7185 50.446C78.2206 50.1304 78.8577 49.7591 79.6108 49.3693C79.9776 49.1837 80.3831 48.9795 80.8272 48.8124C81.2713 48.6454 81.7347 48.4969 82.2368 48.4226C82.7388 48.3484 83.2794 48.3855 83.7428 48.6082C83.8007 48.6268 83.8587 48.6639 83.9166 48.701C83.9745 48.7382 84.0325 48.7753 84.0711 48.8124C84.129 48.8496 84.1676 48.9052 84.2255 48.9424C84.2642 48.9795 84.3028 49.0352 84.3414 49.0723C84.3993 49.1651 84.4379 49.2765 84.4572 49.3879C84.4572 49.4992 84.4379 49.6106 84.3993 49.722C84.3028 49.9448 84.129 50.1675 83.9166 50.3531C83.7042 50.5388 83.4532 50.7058 83.1829 50.8172C83.0477 50.8915 82.9126 50.9286 82.7581 50.9843C82.6809 51.0028 82.6036 51.0214 82.5457 51.04L82.4298 51.0771C82.3912 51.0771 82.3526 51.0956 82.314 51.0956C82.2367 51.1142 82.1595 51.1328 82.0823 51.1328C82.005 51.1513 81.9278 51.1513 81.8506 51.1699L81.7347 51.1885H81.6189C81.5416 51.1885 81.4644 51.207 81.3872 51.207C80.441 51.2442 79.5142 51.1328 78.6067 51.0028C78.375 50.9657 78.1626 50.9286 77.9309 50.8915L77.7765 50.8543C77.7185 50.8358 77.6799 50.8358 77.622 50.8172C77.5254 50.7986 77.4096 50.7615 77.313 50.7244C76.9076 50.5945 76.5021 50.4274 76.1352 50.2789C75.3629 49.9633 74.6485 49.6292 73.9533 49.3322C73.2582 49.0352 72.621 48.7939 72.0032 48.5711C71.4046 48.3669 70.8446 48.1999 70.3426 48.107C69.8406 48.0142 69.3965 47.9771 69.0296 48.0142C68.6628 48.0514 68.4118 48.1627 68.238 48.2555C68.1994 48.2741 68.1607 48.3112 68.1414 48.3298C68.1028 48.3484 68.0835 48.3669 68.0642 48.3855C68.0256 48.4226 68.0063 48.4412 68.0063 48.4412C68.0063 48.4412 68.0256 48.4226 68.0642 48.404C68.0835 48.3855 68.1028 48.3669 68.1414 48.3484C68.1801 48.3298 68.1994 48.3112 68.238 48.2927C68.3924 48.1999 68.6628 48.1256 69.0103 48.107C69.3579 48.0885 69.802 48.1442 70.2847 48.2555C70.7674 48.3669 71.3081 48.5525 71.9066 48.7753C72.4859 48.9981 73.1231 49.2765 73.7989 49.5921C74.4747 49.9076 75.1891 50.2418 75.9614 50.5945C76.3476 50.7615 76.7338 50.9471 77.1779 51.0771C77.2937 51.1142 77.3903 51.1513 77.5061 51.1699C77.5641 51.1885 77.622 51.207 77.6799 51.207C77.7378 51.2256 77.7958 51.2256 77.8537 51.2442C78.0661 51.2813 78.2978 51.337 78.5295 51.3741C79.437 51.5226 80.4024 51.6525 81.4065 51.5968C81.4837 51.5968 81.5803 51.5783 81.6575 51.5783L81.7927 51.5597L81.9278 51.5412C82.005 51.5226 82.1016 51.5226 82.1788 51.504C82.2561 51.4855 82.3526 51.4669 82.4298 51.4483C82.4685 51.4483 82.5071 51.4298 82.5457 51.4298L82.6615 51.3927C82.7388 51.3741 82.816 51.3555 82.9126 51.3184C83.067 51.2627 83.2408 51.207 83.376 51.1328C83.6849 51.0028 83.9745 50.8172 84.2062 50.5945C84.4572 50.3717 84.6696 50.1118 84.7855 49.7963C84.8434 49.6478 84.882 49.4621 84.8627 49.2951C84.8434 49.1094 84.7855 48.9424 84.6696 48.8124C84.6117 48.7382 84.5538 48.6825 84.4959 48.6268C84.4379 48.5711 84.38 48.534 84.3221 48.4783C84.2642 48.4412 84.1869 48.3855 84.129 48.3484C84.0518 48.3112 83.9938 48.2741 83.9166 48.237C83.6463 48.107 83.3373 48.0328 83.0477 48.0142C82.7581 47.9957 82.4685 48.0142 82.1981 48.0514C81.6575 48.1442 81.1748 48.3112 80.7307 48.4969C80.2866 48.6825 79.8811 48.9052 79.5142 49.1094C78.7805 49.5364 78.1626 49.9448 77.6799 50.2789C77.1779 50.5945 76.56 50.9843 75.8456 51.4483C75.1312 51.9124 74.3395 52.4322 73.4513 52.9891C73.0072 53.2675 72.5438 53.5459 72.0418 53.8058C71.5398 54.0657 71.0184 54.3256 70.4778 54.4926C70.2075 54.5855 69.9178 54.6597 69.6282 54.6783C69.3386 54.6968 69.0296 54.7154 68.7207 54.6783C68.4311 54.6411 68.1221 54.5669 67.8711 54.4555C67.7553 54.3813 67.6201 54.307 67.5236 54.2142C67.4656 54.1771 67.427 54.1214 67.3884 54.0657C67.3691 54.0471 67.3498 54.01 67.3305 53.9914C67.3112 53.9729 67.2919 53.9358 67.2919 53.8986C67.2146 53.7316 67.1953 53.5274 67.2532 53.3603C67.3112 53.1747 67.427 53.0076 67.5622 52.8777C67.7166 52.7477 67.8904 52.6364 68.0835 52.5435C68.2766 52.4693 68.489 52.395 68.7014 52.3765C69.1262 52.3022 69.5703 52.3022 69.9951 52.3394C70.1109 52.3394 70.2075 52.3579 70.304 52.3765C70.4005 52.395 70.4971 52.4136 70.6129 52.4507C70.806 52.5064 70.9991 52.5621 71.1729 52.6549C71.3467 52.7292 71.5204 52.8406 71.6942 52.9334C71.8487 53.0447 72.0225 53.1561 72.1576 53.2675C72.4473 53.5088 72.7176 53.7687 72.9493 54.0471C73.432 54.5855 73.8182 55.1423 74.1464 55.6621C74.2237 55.792 74.3202 55.922 74.3974 56.0334C74.4747 56.1447 74.5519 56.2747 74.6098 56.4046C74.7257 56.6459 74.8222 56.8872 74.8802 57.1286C75.0153 57.5926 75.0539 58.001 75.0153 58.3537C74.996 58.5208 74.9574 58.6693 74.8995 58.7806C74.8415 58.892 74.7836 58.9848 74.7064 59.0591C74.6678 59.0962 74.6484 59.1148 74.6098 59.1333C74.5905 59.1519 74.5519 59.1705 74.5326 59.189C74.5519 59.2818 74.5133 59.3004 74.5133 59.3004Z" fill="url(#paint9_linear_7_2638)"/>
<path d="M74.5713 59.1882C73.2197 60.7385 74.5134 61 74.5134 61C75.865 60.7198 74.5713 59.1882 74.5713 59.1882ZM74.4747 60.589C74.4747 60.5517 74.5134 60.533 74.5327 60.533C74.5713 60.533 74.5906 60.5704 74.5906 60.589C74.5906 60.6264 74.552 60.6451 74.5327 60.6451C74.5134 60.6451 74.4747 60.6264 74.4747 60.589ZM74.552 60.4209C74.1851 59.6925 74.5713 59.5991 74.5713 59.5991C74.9575 59.7485 74.552 60.4209 74.552 60.4209Z" fill="url(#paint10_linear_7_2638)"/>
<path d="M74.7643 59.0761C74.7643 58.9827 74.6871 58.908 74.5905 58.908C74.494 58.908 74.4167 58.9827 74.4167 59.0761C74.4167 59.1695 74.494 59.2442 74.5905 59.2442C74.6678 59.2442 74.7643 59.1695 74.7643 59.0761Z" fill="url(#paint11_linear_7_2638)"/>
<path d="M8.73608 49.7437C3.72111 45.8437 3 49.712 3 49.712C4.01611 53.6437 8.73608 49.7437 8.73608 49.7437ZM4.34388 49.5535C4.44222 49.5535 4.54055 49.6486 4.54055 49.7437C4.54055 49.8389 4.44222 49.9023 4.34388 49.9023C4.24555 49.9023 4.14722 49.8389 4.14722 49.7437C4.14722 49.6169 4.24555 49.5535 4.34388 49.5535ZM4.86832 49.7437C7.16276 48.6023 7.49053 49.7437 7.49053 49.7437C7.03165 50.9169 4.86832 49.7437 4.86832 49.7437Z" fill="url(#paint12_linear_7_2638)"/>
<path d="M9.12942 50.2512C9.42442 50.2512 9.65386 50.0293 9.65386 49.7439C9.65386 49.4585 9.42442 49.2366 9.12942 49.2366C8.83442 49.2366 8.60498 49.4585 8.60498 49.7439C8.60498 50.0293 8.83442 50.2512 9.12942 50.2512Z" fill="url(#paint13_linear_7_2638)"/>
<path d="M13.1938 50.2829C13.4888 50.2829 13.7183 50.061 13.7183 49.7756C13.7183 49.4903 13.4888 49.2683 13.1938 49.2683C12.8988 49.2683 12.6694 49.4903 12.6694 49.7756C12.6694 50.061 12.8988 50.2829 13.1938 50.2829Z" fill="url(#paint14_linear_7_2638)"/>
<path d="M11.1616 51.1073L9.35886 49.7439L11.1616 48.3805C11.3583 48.8244 12.9644 49.7439 12.9644 49.7439C12.9972 49.7756 11.3583 50.6634 11.1616 51.1073Z" fill="url(#paint15_linear_7_2638)"/>
<path d="M62.0653 49.7439C62.0653 49.7439 61.5736 47.239 58.3286 49.7439C58.3286 49.7439 61.4097 52.3122 62.0653 49.7439ZM61.3114 49.7439C61.3114 49.8073 61.2459 49.8707 61.1803 49.8707C61.1147 49.8707 61.0492 49.8073 61.0492 49.7439C61.0492 49.6805 61.1147 49.6171 61.1803 49.6171C61.2459 49.6171 61.3114 49.6805 61.3114 49.7439ZM59.1153 49.7439C59.1153 49.7439 59.312 48.9829 60.8197 49.7439C60.8525 49.7439 59.4431 50.5049 59.1153 49.7439Z" fill="url(#paint16_linear_7_2638)"/>
<path d="M58.0664 50.0927C57.8698 50.0927 57.7059 49.9341 57.7059 49.7756C57.7059 49.5854 57.8698 49.4268 58.0336 49.4268C58.2303 49.4268 58.3942 49.5854 58.3942 49.7439C58.427 49.9341 58.2631 50.0927 58.0664 50.0927Z" fill="url(#paint17_linear_7_2638)"/>
<path d="M57.7386 49.5853H13.1938V49.9341H57.7386V49.5853Z" fill="url(#paint18_linear_7_2638)"/>
</g>
<defs>
<linearGradient id="paint0_linear_7_2638" x1="75" y1="0" x2="75" y2="50" gradientUnits="userSpaceOnUse">
<stop stop-color="#7C6D54" stop-opacity="0"/>
<stop offset="1" stop-color="#7C6D54"/>
</linearGradient>
<linearGradient id="paint1_linear_7_2638" x1="143.132" y1="48.0023" x2="143.132" y2="51.4679" gradientUnits="userSpaceOnUse">
<stop stop-color="#F2DA85"/>
<stop offset="1" stop-color="#F2CD48"/>
</linearGradient>
<linearGradient id="paint2_linear_7_2638" x1="139.871" y1="49.2366" x2="139.871" y2="50.2513" gradientUnits="userSpaceOnUse">
<stop stop-color="#F2DA85"/>
<stop offset="1" stop-color="#F2CD48"/>
</linearGradient>
<linearGradient id="paint3_linear_7_2638" x1="135.808" y1="49.2683" x2="135.808" y2="50.2829" gradientUnits="userSpaceOnUse">
<stop stop-color="#F2DA85"/>
<stop offset="1" stop-color="#F2CD48"/>
</linearGradient>
<linearGradient id="paint4_linear_7_2638" x1="137.838" y1="48.3805" x2="137.838" y2="51.1073" gradientUnits="userSpaceOnUse">
<stop stop-color="#F2DA85"/>
<stop offset="1" stop-color="#F2CD48"/>
</linearGradient>
<linearGradient id="paint5_linear_7_2638" x1="88.803" y1="48.6166" x2="88.803" y2="50.8854" gradientUnits="userSpaceOnUse">
<stop stop-color="#F2DA85"/>
<stop offset="1" stop-color="#F2CD48"/>
</linearGradient>
<linearGradient id="paint6_linear_7_2638" x1="90.9479" y1="49.4268" x2="90.9479" y2="50.0927" gradientUnits="userSpaceOnUse">
<stop stop-color="#F2DA85"/>
<stop offset="1" stop-color="#F2CD48"/>
</linearGradient>
<linearGradient id="paint7_linear_7_2638" x1="113.534" y1="49.5854" x2="113.534" y2="49.9342" gradientUnits="userSpaceOnUse">
<stop stop-color="#F2DA85"/>
<stop offset="1" stop-color="#F2CD48"/>
</linearGradient>
<linearGradient id="paint8_linear_7_2638" x1="73.1867" y1="48.0731" x2="73.1867" y2="59.319" gradientUnits="userSpaceOnUse">
<stop stop-color="#F2DA85"/>
<stop offset="1" stop-color="#F2CD48"/>
</linearGradient>
<linearGradient id="paint9_linear_7_2638" x1="75.8249" y1="48" x2="75.8249" y2="59.3004" gradientUnits="userSpaceOnUse">
<stop stop-color="#F2DA85"/>
<stop offset="1" stop-color="#F2CD48"/>
</linearGradient>
<linearGradient id="paint10_linear_7_2638" x1="74.5423" y1="59.1882" x2="74.5423" y2="61" gradientUnits="userSpaceOnUse">
<stop stop-color="#F2DA85"/>
<stop offset="1" stop-color="#F2CD48"/>
</linearGradient>
<linearGradient id="paint11_linear_7_2638" x1="74.5905" y1="58.908" x2="74.5905" y2="59.2442" gradientUnits="userSpaceOnUse">
<stop stop-color="#F2DA85"/>
<stop offset="1" stop-color="#F2CD48"/>
</linearGradient>
<linearGradient id="paint12_linear_7_2638" x1="5.86804" y1="48.0021" x2="5.86804" y2="51.4677" gradientUnits="userSpaceOnUse">
<stop stop-color="#F2DA85"/>
<stop offset="1" stop-color="#F2CD48"/>
</linearGradient>
<linearGradient id="paint13_linear_7_2638" x1="9.12942" y1="49.2366" x2="9.12942" y2="50.2512" gradientUnits="userSpaceOnUse">
<stop stop-color="#F2DA85"/>
<stop offset="1" stop-color="#F2CD48"/>
</linearGradient>
<linearGradient id="paint14_linear_7_2638" x1="13.1938" y1="49.2683" x2="13.1938" y2="50.2829" gradientUnits="userSpaceOnUse">
<stop stop-color="#F2DA85"/>
<stop offset="1" stop-color="#F2CD48"/>
</linearGradient>
<linearGradient id="paint15_linear_7_2638" x1="11.1619" y1="48.3805" x2="11.1619" y2="51.1073" gradientUnits="userSpaceOnUse">
<stop stop-color="#F2DA85"/>
<stop offset="1" stop-color="#F2CD48"/>
</linearGradient>
<linearGradient id="paint16_linear_7_2638" x1="60.197" y1="48.6306" x2="60.197" y2="50.8854" gradientUnits="userSpaceOnUse">
<stop stop-color="#F2DA85"/>
<stop offset="1" stop-color="#F2CD48"/>
</linearGradient>
<linearGradient id="paint17_linear_7_2638" x1="58.0521" y1="49.4268" x2="58.0521" y2="50.0927" gradientUnits="userSpaceOnUse">
<stop stop-color="#F2DA85"/>
<stop offset="1" stop-color="#F2CD48"/>
</linearGradient>
<linearGradient id="paint18_linear_7_2638" x1="35.4662" y1="49.5853" x2="35.4662" y2="49.9341" gradientUnits="userSpaceOnUse">
<stop stop-color="#F2DA85"/>
<stop offset="1" stop-color="#F2CD48"/>
</linearGradient>
<clipPath id="clip0_7_2638">
<rect width="143" height="13" fill="white" transform="translate(3 48)"/>
</clipPath>
</defs>
</svg>
