<svg width="26" height="24" viewBox="0 0 26 24" fill="none" xmlns="http://www.w3.org/2000/svg">
<path d="M24 6H21.3333V2.66667H2.66667V21.3333H21.3333V18H24V24H0V0H24V6ZM10.6667 18.6667V5.33333H25.3333V18.6667H10.6667ZM17.3333 14C17.8889 14 18.3613 13.8058 18.7507 13.4173C19.14 13.0289 19.3342 12.5564 19.3333 12C19.3324 11.4436 19.1382 10.9716 18.7507 10.584C18.3631 10.1964 17.8907 10.0018 17.3333 10C16.776 9.99822 16.304 10.1929 15.9173 10.584C15.5307 10.9751 15.336 11.4471 15.3333 12C15.3307 12.5529 15.5253 13.0253 15.9173 13.4173C16.3093 13.8093 16.7813 14.0036 17.3333 14ZM22.6667 16V8H13.3333V16H22.6667Z" fill="#F2DA85"/>
</svg>
